<?xml version="1.0" encoding="UTF-8" standalone="no"?>
<!-- Generator: Adobe Illustrator 21.0.0, SVG Export Plug-In . SVG Version: 6.00 Build 0)  -->

<svg
   version="1.1"
   id="Layer_1"
   x="0px"
   y="0px"
   width="2347.4602"
   height="1580.9819"
   viewBox="0 0 2347.4602 1580.9819"
   xml:space="preserve"
   sodipodi:docname="software engineeri 2.svg"
   inkscape:version="1.2.1 (9c6d41e410, 2022-07-14)"
   inkscape:export-filename="software-engineer1.png"
   inkscape:export-xdpi="95"
   inkscape:export-ydpi="95"
   xmlns:inkscape="http://www.inkscape.org/namespaces/inkscape"
   xmlns:sodipodi="http://sodipodi.sourceforge.net/DTD/sodipodi-0.dtd"
   xmlns="http://www.w3.org/2000/svg"
   xmlns:svg="http://www.w3.org/2000/svg"
   xmlns:rdf="http://www.w3.org/1999/02/22-rdf-syntax-ns#"
   xmlns:cc="http://creativecommons.org/ns#"
   xmlns:dc="http://purl.org/dc/elements/1.1/"><metadata
   id="metadata407"><rdf:RDF><cc:Work
       rdf:about=""><dc:format>image/svg+xml</dc:format><dc:type
         rdf:resource="http://purl.org/dc/dcmitype/StillImage" /></cc:Work></rdf:RDF></metadata><defs
   id="defs405">
	
	
	
	
	
	
	
	
	
	
	
	
	
	
	
	
	
	
	
	
	
	
	
	
	
	
	
	

		
		
		
		
		
	
			
			
			
			
			
			
			
			
			
			
			
		
			
			
			
			
			
			
			
		
			
			
			
			
			
			
			
			
			
			
			
		
			
			
			
			
		
			
			
			
			
			
		
				
				
				
				
				
				
				
				
				
				
				
				
				
				
				
				
				
				
				
				
			
		
		
	
				
				
			<clipPath
   clipPathUnits="userSpaceOnUse"
   id="clipPath2104"><rect
     style="opacity:1;fill:#ffffff;fill-opacity:0.49019608;stroke:#ffffff;stroke-width:0.97067112;stroke-opacity:1"
     id="rect2106"
     width="2347.4602"
     height="1580.9819"
     x="305.08344"
     y="215.62953" /></clipPath><clipPath
   clipPathUnits="userSpaceOnUse"
   id="clipPath2108"><rect
     style="opacity:1;fill:#ffffff;fill-opacity:0.49019608;stroke:#ffffff;stroke-width:0.97067112;stroke-opacity:1"
     id="rect2110"
     width="2347.4602"
     height="1580.9819"
     x="305.08344"
     y="215.62953" /></clipPath>
			
			
		
			
			
		
			
		
			
			
		
				
			
					
						
					
						
					
					
					
					
					
					
					
					
					
					
					
					
					
					
				
						
					
						
						
					
				
				
				
			
				
				
				
				
				
				
				
				
				
				
				
				
			
				
				
				
			
		
		
		
		
		
		
		
		
		
		
		
		
		
	
						
					
				
				
				
				
				
			</defs><sodipodi:namedview
   pagecolor="#ffffff"
   bordercolor="#666666"
   borderopacity="1"
   objecttolerance="10"
   gridtolerance="10"
   guidetolerance="10"
   inkscape:pageopacity="0"
   inkscape:pageshadow="2"
   inkscape:window-width="1920"
   inkscape:window-height="1001"
   id="namedview403"
   showgrid="false"
   fit-margin-top="0"
   fit-margin-left="0"
   fit-margin-right="0"
   fit-margin-bottom="0"
   inkscape:zoom="0.36297564"
   inkscape:cx="852.67429"
   inkscape:cy="1034.5047"
   inkscape:window-x="-9"
   inkscape:window-y="-9"
   inkscape:window-maximized="1"
   inkscape:current-layer="g128"
   inkscape:showpageshadow="2"
   inkscape:pagecheckerboard="0"
   inkscape:deskcolor="#d1d1d1" />
<style
   type="text/css"
   id="style2">
	.st0{fill:#9EE2D5;}
	.st1{fill:#B3E8DE;}
	.st2{fill:#80BCB0;}
	.st3{fill:#FFFFE7;}
	.st4{fill:#EDECD6;}
	.st5{fill:#D59E4C;}
	.st6{fill:#CABFA3;}
	.st7{fill:#968E7C;}
	.st8{fill:#FFCE7F;}
	.st9{fill:#DB7A49;}
	.st10{fill:#A04935;}
	.st11{fill:#AF5B41;}
	.st12{fill:#FD965B;}
	.st13{fill:#2B6668;}
	.st14{fill:#335352;}
	.st15{fill:#8D978F;}
	.st16{fill:#7E8780;}
	.st17{fill:#914C3A;}
	.st18{fill:#89968C;}
	.st19{fill:#97A098;}
	.st20{fill:#717F74;}
	.st21{fill:#B6BAB6;}
	.st22{fill:#9BA59D;}
	.st23{fill:#A3AFA5;}
	.st24{fill:#8F9991;}
	.st25{fill:#A07457;}
	.st26{fill:#B78B68;}
	.st27{fill:#7D966C;}
	.st28{fill:#667C55;}
	.st29{fill:#CEF4EC;}
	.st30{fill:#609389;}
	.st31{fill:#AAAFAB;}
	.st32{fill:#3F8989;}
	.st33{fill:#DCF9F2;}
</style>
<g
   id="g18"
   transform="translate(-305.08344,-215.62953)">
			<polygon
   class="st1"
   points="2573.9,982.1 476.6,982.1 424.3,1056.7 2521.6,1056.7 "
   id="polygon6"
   style="fill:#0d6b8e;fill-opacity:1" />
			<polygon
   class="st1"
   points="2573.9,1098 476.6,1098 424.3,1172.6 2521.6,1172.6 "
   id="polygon8"
   style="fill:#0d6b8e;fill-opacity:1" />
			<polygon
   class="st1"
   points="2573.9,1213.9 476.6,1213.9 424.3,1288.5 2521.6,1288.5 "
   id="polygon10"
   style="fill:#0d6b8e;fill-opacity:1" />
			<polygon
   class="st1"
   points="2573.9,1336.4 476.6,1336.4 424.3,1411 2521.6,1411 "
   id="polygon12"
   style="fill:#0d6b8e;fill-opacity:1" />
			<rect
   x="2428.2"
   y="378.29999"
   class="st1"
   width="15.3"
   height="1220.4"
   id="rect14"
   style="fill:#5edaf7;fill-opacity:1" />
			<ellipse
   class="st1"
   cx="2435.8"
   cy="1634.3"
   rx="21.6"
   ry="58.299999"
   id="ellipse16"
   style="fill:#5edaf7;fill-opacity:1" />
		</g><g
   id="g28"
   style="fill:#50b6bb;fill-opacity:0.996337"
   transform="translate(-305.08344,-215.62953)">
			<polygon
   class="st1"
   points="2573.9,378.3 476.6,378.3 424.3,452.9 2521.6,452.9 "
   id="polygon20"
   style="fill:#0d6b8e;fill-opacity:0.996337" />
			<polygon
   class="st1"
   points="2573.9,494.2 476.6,494.2 424.3,568.8 2521.6,568.8 "
   id="polygon22"
   style="fill:#0d6b8e;fill-opacity:0.996337" />
			<polygon
   class="st1"
   points="2573.9,610.1 476.6,610.1 424.3,684.7 2521.6,684.7 "
   id="polygon24"
   style="fill:#0d6b8e;fill-opacity:0.996337" />
			<polygon
   class="st1"
   points="2573.9,732.6 476.6,732.6 424.3,807.2 2521.6,807.2 "
   id="polygon26"
   style="fill:#0d6b8e;fill-opacity:0.996337" />
		</g><g
   id="g58"
   transform="translate(-305.08344,-215.62953)">
		<path
   class="st2"
   d="m 1313.7,915.9 -35.3,-3.1 c -0.1,-0.4 -0.2,-0.8 -0.3,-1.1 l 29,-20.4 c 2.2,-1.5 2.8,-4.4 1.5,-6.7 l -7.2,-12.6 -7.2,-12.6 c -1.3,-2.3 -4.1,-3.2 -6.5,-2.1 l -32.2,15 c -0.3,-0.3 -0.6,-0.6 -0.8,-0.8 l 15,-32.2 c 1.1,-2.4 0.2,-5.2 -2.1,-6.5 l -12.6,-7.2 -12.6,-7.2 c -2.3,-1.3 -5.2,-0.7 -6.7,1.5 l -20.4,29 c -0.4,-0.1 -0.8,-0.2 -1.1,-0.3 l -3.1,-35.3 c -0.2,-2.6 -2.4,-4.6 -5,-4.6 h -14.5 -14.6 c -2.6,0 -4.8,2 -5,4.6 l -3.1,35.3 c -0.4,0.1 -0.8,0.2 -1.1,0.3 l -20.4,-29 c -1.5,-2.2 -4.4,-2.8 -6.7,-1.5 l -12.6,7.2 -12.6,7.2 c -2.3,1.3 -3.2,4.1 -2.1,6.5 l 15,32.2 c -0.3,0.3 -0.6,0.6 -0.8,0.8 l -32.2,-15 c -2.4,-1.1 -5.2,-0.2 -6.5,2.1 l -7.2,12.6 -7.2,12.6 c -1.3,2.3 -0.7,5.2 1.5,6.7 l 29,20.4 c -0.1,0.4 -0.2,0.8 -0.3,1.1 l -35.3,3.1 c -2.6,0.2 -4.6,2.4 -4.6,5 v 14.5 14.5 c 0,2.6 2,4.8 4.6,5 l 35.3,3.1 c 0.1,0.4 0.2,0.8 0.3,1.1 l -29,20.4 c -2.1,1.5 -2.8,4.4 -1.5,6.7 l 7.2,12.6 7.2,12.6 c 1.3,2.3 4.1,3.2 6.5,2.1 l 32.2,-15 c 0.3,0.3 0.6,0.6 0.8,0.8 l -15,32.2 c -1.1,2.4 -0.2,5.2 2.1,6.5 l 12.6,7.2 12.6,7.2 c 2.3,1.3 5.2,0.7 6.7,-1.5 l 20.4,-29 c 0.4,0.1 0.8,0.2 1.1,0.3 l 3.1,35.3 c 0.2,2.6 2.4,4.6 5,4.6 h 14.5 14.5 c 2.6,0 4.8,-2 5,-4.6 l 3.1,-35.3 c 0.4,-0.1 0.8,-0.2 1.1,-0.3 l 20.4,29 c 1.5,2.2 4.4,2.8 6.7,1.5 l 12.6,-7.2 12.6,-7.2 c 2.3,-1.3 3.2,-4.1 2.1,-6.5 l -15,-32.2 c 0.3,-0.3 0.6,-0.6 0.8,-0.8 l 32.2,15 c 2.4,1.1 5.2,0.2 6.5,-2.1 l 7.2,-12.6 7.2,-12.6 c 1.3,-2.3 0.7,-5.2 -1.5,-6.7 l -29,-20.4 c 0.1,-0.4 0.2,-0.8 0.3,-1.1 l 35.3,-3.1 c 2.6,-0.2 4.6,-2.4 4.6,-5 v -14.5 -14.5 c 0.1,-2.6 -1.9,-4.8 -4.5,-5 z m -122.2,86.6 c -37,0 -67,-30 -67,-67 0,-37 30,-67 67,-67 37,0 67,30 67,67 0,37 -29.9,67 -67,67 z"
   id="path32"
   inkscape:connector-curvature="0"
   style="fill:#393e46;fill-opacity:1" />
		<path
   class="st2"
   d="m 1568.3,574.6 -53.4,-4.7 c -0.2,-0.6 -0.3,-1.2 -0.5,-1.7 l 43.9,-30.8 c 3.2,-2.3 4.2,-6.7 2.2,-10.1 l -10.9,-19 -10.9,-19 c -2,-3.4 -6.3,-4.8 -9.9,-3.1 l -48.6,22.6 c -0.4,-0.4 -0.8,-0.8 -1.3,-1.3 l 22.6,-48.6 c 1.7,-3.6 0.3,-7.9 -3.1,-9.9 l -19,-10.9 -19,-10.9 c -3.4,-2 -7.8,-1 -10.1,2.2 l -30.8,43.9 c -0.6,-0.2 -1.1,-0.3 -1.7,-0.5 l -4.7,-53.4 c -0.3,-4 -3.7,-7 -7.6,-7 h -21.9 -21.9 c -4,0 -7.3,3 -7.6,7 l -4.7,53.4 c -0.6,0.2 -1.2,0.3 -1.7,0.5 l -30.8,-43.9 c -2.3,-3.2 -6.7,-4.2 -10.1,-2.2 l -19,10.9 -19,10.9 c -3.4,2 -4.8,6.3 -3.1,9.9 l 22.6,48.6 c -0.4,0.4 -0.8,0.8 -1.3,1.3 l -48.6,-22.6 c -3.6,-1.7 -7.9,-0.3 -9.9,3.1 l -10.9,19 -10.9,19 c -2,3.4 -1,7.8 2.2,10.1 l 43.9,30.8 c -0.2,0.6 -0.3,1.1 -0.5,1.7 l -53.4,4.7 c -4,0.3 -7,3.7 -7,7.6 v 21.9 21.9 c 0,4 3,7.3 7,7.6 l 53.4,4.7 c 0.2,0.6 0.3,1.2 0.5,1.7 l -43.9,30.8 c -3.2,2.3 -4.2,6.7 -2.2,10.1 l 10.9,19 10.9,19 c 2,3.4 6.3,4.8 9.9,3.1 l 48.6,-22.6 c 0.4,0.4 0.8,0.8 1.3,1.3 l -22.6,48.6 c -1.7,3.6 -0.3,7.9 3.1,9.9 l 19,10.9 19,10.9 c 3.4,2 7.8,1 10.1,-2.2 l 30.8,-43.9 c 0.6,0.2 1.1,0.3 1.7,0.5 l 4.7,53.4 c 0.3,4 3.7,7 7.6,7 h 21.9 21.9 c 4,0 7.3,-3 7.6,-7 l 4.7,-53.4 c 0.6,-0.2 1.2,-0.3 1.7,-0.5 l 30.8,43.9 c 2.3,3.2 6.7,4.2 10.1,2.2 l 19,-10.9 19,-10.9 c 3.4,-2 4.8,-6.3 3.1,-9.9 l -22.6,-48.6 c 0.4,-0.4 0.8,-0.8 1.3,-1.3 l 48.6,22.6 c 3.6,1.7 7.9,0.3 9.9,-3.1 l 10.9,-19 10.9,-19 c 2,-3.4 1,-7.8 -2.2,-10.1 L 1514.4,640 c 0.2,-0.6 0.3,-1.1 0.5,-1.7 l 53.4,-4.7 c 4,-0.3 7,-3.7 7,-7.6 v -21.9 -21.9 c 0,-4 -3,-7.3 -7,-7.6 z m -184.5,130.8 c -55.9,0 -101.3,-45.3 -101.3,-101.3 0,-56 45.3,-101.3 101.3,-101.3 55.9,0 101.3,45.3 101.3,101.3 0,56 -45.3,101.3 -101.3,101.3 z"
   id="path36"
   inkscape:connector-curvature="0"
   style="fill:#393e46;fill-opacity:1" /><circle
   class="st2"
   cx="1383.8"
   cy="604.09998"
   r="77.099998"
   id="circle38"
   style="fill:#393e46;fill-opacity:1" />
		<path
   class="st2"
   d="m 1196.3,358.2 -41.7,-4.1 c -2.3,-10.3 -6.3,-19.9 -11.8,-28.5 l 26.6,-32.4 c 1,-1.2 0.9,-3 -0.2,-4.1 l -8.7,-8.7 -8.7,-8.7 c -1.1,-1.1 -2.9,-1.2 -4.1,-0.2 l -32.4,26.6 c -8.6,-5.5 -18.2,-9.5 -28.5,-11.8 l -4.1,-41.7 c -0.2,-1.6 -1.5,-2.8 -3,-2.8 h -12.3 -12.3 c -1.6,0 -2.9,1.2 -3,2.8 l -4.1,41.7 c -10.3,2.3 -19.9,6.3 -28.5,11.8 l -32.4,-26.6 c -1.2,-1 -3,-0.9 -4.1,0.2 l -8.7,8.7 -8.7,8.7 c -1.1,1.1 -1.2,2.9 -0.2,4.1 l 26.6,32.4 c -5.5,8.6 -9.5,18.2 -11.8,28.5 l -41.7,4.1 c -1.6,0.2 -2.8,1.5 -2.8,3 v 12.3 12.3 c 0,1.6 1.2,2.9 2.8,3 l 41.7,4.1 c 2.3,10.3 6.3,19.9 11.8,28.5 l -26.6,32.4 c -1,1.2 -0.9,3 0.2,4.1 l 8.7,8.7 8.7,8.7 c 1.1,1.1 2.9,1.2 4.1,0.2 l 32.4,-26.6 c 8.6,5.5 18.2,9.5 28.5,11.8 l 4.1,41.7 c 0.2,1.6 1.5,2.8 3,2.8 h 12.3 12.3 c 1.6,0 2.9,-1.2 3,-2.8 l 4.1,-41.7 c 10.3,-2.3 19.9,-6.3 28.5,-11.8 l 32.4,26.6 c 1.2,1 3,0.9 4.1,-0.2 l 8.7,-8.7 8.7,-8.7 c 1.1,-1.1 1.2,-2.9 0.2,-4.1 l -26.6,-32.4 c 5.5,-8.6 9.5,-18.2 11.8,-28.5 l 41.7,-4.1 c 1.6,-0.2 2.8,-1.5 2.8,-3 v -12.3 -12.3 c 0,-1.5 -1.2,-2.8 -2.8,-3 z m -128.8,84.5 c -38.2,0 -69.2,-31 -69.2,-69.2 0,-38.2 31,-69.2 69.2,-69.2 38.2,0 69.2,31 69.2,69.2 0,38.2 -31,69.2 -69.2,69.2 z"
   id="path42"
   inkscape:connector-curvature="0"
   style="fill:#393e46;fill-opacity:1" /><path
   class="st2"
   d="m 1067.5,316.2 c -31.7,0 -57.3,25.7 -57.3,57.3 0,31.7 25.7,57.3 57.3,57.3 31.7,0 57.3,-25.7 57.3,-57.3 0,-31.6 -25.6,-57.3 -57.3,-57.3 z m 0,105.6 c -26.7,0 -48.3,-21.6 -48.3,-48.3 0,-26.7 21.6,-48.3 48.3,-48.3 26.7,0 48.3,21.6 48.3,48.3 0,26.7 -21.6,48.3 -48.3,48.3 z"
   id="path44"
   inkscape:connector-curvature="0"
   style="fill:#393e46;fill-opacity:1" />
		<path
   class="st2"
   d="m 1910.1,664.9 -44.2,-4.3 c -2.4,-10.9 -6.7,-21.1 -12.5,-30.2 l 28.2,-34.3 c 1.1,-1.3 1,-3.2 -0.2,-4.3 l -9.2,-9.2 -9.2,-9.2 c -1.2,-1.2 -3.1,-1.3 -4.3,-0.2 l -34.3,28.2 c -9.1,-5.8 -19.3,-10.1 -30.2,-12.5 l -4.3,-44.2 c -0.2,-1.7 -1.6,-2.9 -3.2,-2.9 h -13 -13 c -1.7,0 -3.1,1.3 -3.2,2.9 l -4.3,44.2 c -10.9,2.4 -21.1,6.7 -30.2,12.5 l -34.3,-28.2 c -1.3,-1.1 -3.2,-1 -4.3,0.2 l -9.2,9.2 -9.2,9.2 c -1.2,1.2 -1.3,3.1 -0.2,4.3 l 28.2,34.3 c -5.8,9.1 -10.1,19.3 -12.5,30.2 l -44.2,4.3 c -1.7,0.2 -2.9,1.6 -2.9,3.2 v 13 13 c 0,1.7 1.3,3.1 2.9,3.2 l 44.2,4.3 c 2.4,10.9 6.7,21.1 12.5,30.2 l -28.2,34.3 c -1.1,1.3 -1,3.2 0.2,4.3 l 9.2,9.2 9.2,9.2 c 1.2,1.2 3.1,1.3 4.3,0.2 l 34.3,-28.2 c 9.1,5.8 19.3,10.1 30.2,12.5 l 4.3,44.2 c 0.2,1.7 1.6,2.9 3.2,2.9 h 13 13 c 1.7,0 3.1,-1.3 3.2,-2.9 l 4.3,-44.2 c 10.9,-2.4 21.1,-6.7 30.2,-12.5 l 34.3,28.2 c 1.3,1.1 3.2,1 4.3,-0.2 l 9.2,-9.2 9.2,-9.2 c 1.2,-1.2 1.3,-3.1 0.2,-4.3 l -28.2,-34.3 c 5.8,-9.1 10.1,-19.3 12.5,-30.2 l 44.2,-4.3 c 1.7,-0.2 2.9,-1.6 2.9,-3.2 v -13 -13 c 0,-1.6 -1.2,-3 -2.9,-3.2 z m -136.3,89.5 c -40.5,0 -73.3,-32.8 -73.3,-73.3 0,-40.5 32.8,-73.3 73.3,-73.3 40.5,0 73.3,32.8 73.3,73.3 -0.1,40.5 -32.9,73.3 -73.3,73.3 z"
   id="path48"
   inkscape:connector-curvature="0"
   style="fill:#393e46;fill-opacity:1" /><path
   class="st2"
   d="m 1773.8,620.5 c -33.5,0 -60.7,27.2 -60.7,60.7 0,33.5 27.2,60.7 60.7,60.7 33.5,0 60.7,-27.2 60.7,-60.7 -0.1,-33.6 -27.2,-60.7 -60.7,-60.7 z m 0,111.7 c -28.2,0 -51.1,-22.9 -51.1,-51.1 0,-28.2 22.9,-51.1 51.1,-51.1 28.2,0 51.1,22.9 51.1,51.1 0,28.3 -22.9,51.1 -51.1,51.1 z"
   id="path50"
   inkscape:connector-curvature="0"
   style="fill:#393e46;fill-opacity:1" />
		<path
   style="fill:#393e46;fill-opacity:1"
   inkscape:connector-curvature="0"
   id="path54"
   d="m 1713.5,423.8 -19.2,-1.9 c -1.1,-4.7 -2.9,-9.2 -5.4,-13.1 l 12.3,-14.9 c 0.5,-0.6 0.4,-1.4 -0.1,-1.9 l -4,-4 -4,-4 c -0.5,-0.5 -1.3,-0.6 -1.9,-0.1 l -14.9,12.3 c -4,-2.5 -8.4,-4.4 -13.1,-5.4 l -1.9,-19.2 c -0.1,-0.7 -0.7,-1.3 -1.4,-1.3 h -5.7 -5.7 c -0.7,0 -1.3,0.5 -1.4,1.3 l -1.9,19.2 c -4.7,1.1 -9.2,2.9 -13.1,5.4 l -14.9,-12.3 c -0.6,-0.5 -1.4,-0.4 -1.9,0.1 l -4,4 -4,4 c -0.5,0.5 -0.6,1.3 -0.1,1.9 l 12.3,14.9 c -2.5,4 -4.4,8.4 -5.4,13.1 l -19.2,1.9 c -0.7,0.1 -1.3,0.7 -1.3,1.4 v 5.7 5.7 c 0,0.7 0.5,1.3 1.3,1.4 l 19.2,1.9 c 1.1,4.7 2.9,9.2 5.4,13.1 l -12.3,14.9 c -0.5,0.6 -0.4,1.4 0.1,1.9 l 4,4 4,4 c 0.5,0.5 1.3,0.6 1.9,0.1 l 14.9,-12.3 c 4,2.5 8.4,4.4 13.1,5.4 l 1.9,19.2 c 0.1,0.7 0.7,1.3 1.4,1.3 h 5.7 5.7 c 0.7,0 1.3,-0.5 1.4,-1.3 l 1.9,-19.2 c 4.7,-1.1 9.2,-2.9 13.1,-5.4 l 14.9,12.3 c 0.6,0.5 1.4,0.4 1.9,-0.1 l 4,-4 4,-4 c 0.5,-0.5 0.6,-1.3 0.1,-1.9 L 1688.9,453 c 2.5,-4 4.4,-8.4 5.4,-13.1 l 19.2,-1.9 c 0.7,-0.1 1.3,-0.7 1.3,-1.4 v -5.7 -5.7 c 0,-0.7 -0.6,-1.3 -1.3,-1.4 z m -59.4,24.6 c -9.7,0 -17.6,-7.9 -17.6,-17.6 0,-9.7 7.9,-17.6 17.6,-17.6 9.7,0 17.6,7.9 17.6,17.6 0,9.7 -7.9,17.6 -17.6,17.6 z"
   class="st2" />
		<path
   style="fill:#393e46;fill-opacity:1"
   inkscape:connector-curvature="0"
   id="path56"
   d="m 908.1,512.1 -19.2,-1.9 c -1.1,-4.7 -2.9,-9.2 -5.4,-13.1 l 12.3,-14.9 c 0.5,-0.6 0.4,-1.4 -0.1,-1.9 l -4,-4 -4,-4 c -0.5,-0.5 -1.3,-0.6 -1.9,-0.1 l -14.9,12.3 c -4,-2.5 -8.4,-4.4 -13.1,-5.4 l -1.9,-19.2 c -0.1,-0.7 -0.7,-1.3 -1.4,-1.3 h -5.7 -5.7 c -0.7,0 -1.3,0.5 -1.4,1.3 l -1.9,19.2 c -4.7,1.1 -9.2,2.9 -13.1,5.4 l -14.9,-12.3 c -0.6,-0.5 -1.4,-0.4 -1.9,0.1 l -4,4 -4,4 c -0.5,0.5 -0.6,1.3 -0.1,1.9 L 814,497 c -2.5,4 -4.4,8.4 -5.4,13.1 l -19.2,1.9 c -0.7,0.1 -1.3,0.7 -1.3,1.4 v 5.7 5.7 c 0,0.7 0.5,1.3 1.3,1.4 l 19.2,1.9 c 1.1,4.7 2.9,9.2 5.4,13.1 l -12.3,14.9 c -0.5,0.6 -0.4,1.4 0.1,1.9 l 4,4 4,4 c 0.5,0.5 1.3,0.6 1.9,0.1 l 14.9,-12.3 c 4,2.5 8.4,4.4 13.1,5.4 l 1.9,19.2 c 0.1,0.7 0.7,1.3 1.4,1.3 h 5.7 5.7 c 0.7,0 1.3,-0.5 1.4,-1.3 l 1.9,-19.2 c 4.7,-1.1 9.2,-2.9 13.1,-5.4 l 14.9,12.3 c 0.6,0.5 1.4,0.4 1.9,-0.1 l 4,-4 4,-4 c 0.5,-0.5 0.6,-1.3 0.1,-1.9 l -12.3,-14.9 c 2.5,-4 4.4,-8.4 5.4,-13.1 l 19.2,-1.9 c 0.7,-0.1 1.3,-0.7 1.3,-1.4 v -5.7 -5.7 c 0.1,-0.7 -0.4,-1.3 -1.2,-1.3 z m -59.4,24.6 c -9.7,0 -17.6,-7.9 -17.6,-17.6 0,-9.7 7.9,-17.6 17.6,-17.6 9.7,0 17.6,7.9 17.6,17.6 0,9.7 -7.9,17.6 -17.6,17.6 z"
   class="st2" />
	</g><path
   class="st3"
   d="m 489.71656,1409.3705 c 0,39.8 32.3,72.1 72.1,72.1 h 36.5 c 39.8,0 72.1,-32.3 72.1,-72.1 v -60.8 h -180.7 z"
   id="path60"
   inkscape:connector-curvature="0"
   style="fill:#393e46;fill-opacity:1" /><path
   class="st4"
   d="m 651.71656,1397.5705 c 0,39.8 -32.3,72.1 -72.1,72.1 h -36.5 c -10.2,0 -19.9,-2.1 -28.7,-6 12.7,11.1 29.3,17.8 47.4,17.8 h 36.5 c 39.8,0 72.1,-32.3 72.1,-72.1 v -60.8 h -18.7 z"
   id="path62"
   inkscape:connector-curvature="0"
   style="fill:#393e46;fill-opacity:1" /><path
   class="st3"
   d="m 413.71656,1495.8705 h 332.7 c 10.6,0 19.2,-8.6 19.2,-19.2 h -371.2 c 0,10.5 8.7,19.2 19.3,19.2 z"
   id="path64"
   inkscape:connector-curvature="0"
   style="fill:#393e46;fill-opacity:1" /><path
   class="st4"
   d="m 746.41656,1486.1705 h -332.7 c -7.1,0 -13.3,-3.9 -16.6,-9.6 h -2.6 c 0,10.6 8.6,19.2 19.2,19.2 h 332.7 c 10.6,0 19.2,-8.6 19.2,-19.2 h -2.6 c -3.3,5.8 -9.5,9.6 -16.6,9.6 z"
   id="path66"
   inkscape:connector-curvature="0"
   style="fill:#393e46;fill-opacity:1" /><path
   class="st3"
   d="m 471.11656,1371.2705 h 18.6 c 6.3,0 11.4,-5.1 11.4,-11.4 0,-6.3 -5.1,-11.4 -11.4,-11.4 h -18.6 c -13.4,0 -24.4,10.9 -24.4,24.4 v 13.2 c 0,22.3 18.2,40.5 40.5,40.5 h 2.5 c 6.3,0 11.4,-5.1 11.4,-11.4 0,-6.3 -5.1,-11.4 -11.4,-11.4 h -2.5 c -9.8,0 -17.8,-8 -17.8,-17.8 v -13.2 c 0,-0.7 0.8,-1.5 1.7,-1.5 z"
   id="path68"
   inkscape:connector-curvature="0"
   style="fill:#393e46;fill-opacity:1" /><g
   id="g78"
   clip-path="url(#clipPath2104)"
   transform="translate(-305.08344,-215.62953)">
					<path
   class="st5"
   d="M 2407.4,1711.5 H 521.5 c -21.2,0 -38.4,19.5 -38.4,43.5 0,24 17.2,43.5 38.4,43.5 h 1885.9 c 21.2,0 38.4,-19.5 38.4,-43.5 0.1,-24.1 -17.1,-43.5 -38.4,-43.5 z"
   id="path72"
   inkscape:connector-curvature="0"
   style="fill:#d59e4c" />
					<rect
   x="545"
   y="1798.4"
   class="st6"
   width="1838.9"
   height="201.8"
   id="rect74"
   style="fill:#cabfa3" />
					<rect
   x="545"
   y="1798.4"
   class="st7"
   width="1838.9"
   height="29"
   id="rect76"
   style="fill:#968e7c" />
				</g><path
   class="st8"
   d="M 2102.3166,1495.8705 H 216.41656 c -21.2,0 -38.4,19.5 -38.4,43.5 0,6.5 1.3,12.6 3.5,18.2 0,-0.1 0,-0.2 0,-0.3 v 0 c 0,-24 17.2,-43.5 38.4,-43.5 H 2105.8166 c 15.5,0 28.8,10.4 34.9,25.3 -0.1,-23.9 -17.2,-43.2 -38.4,-43.2 z"
   id="path80"
   inkscape:connector-curvature="0"
   style="fill:#ffce7f" /><rect
   x="1109.2166"
   y="946.97046"
   class="st9"
   width="91.900002"
   height="125.1"
   id="rect84"
   style="fill:#db7a49" /><path
   class="st10"
   d="m 1331.4166,842.97047 c 0,0 -9.9,-19.3 -13.9,7.5 -4,26.8 30.4,43.2 30.4,43.2 -23.4,-26.3 -16.5,-50.7 -16.5,-50.7 z"
   id="path86"
   inkscape:connector-curvature="0"
   style="fill:#a04935" /><path
   class="st11"
   d="m 1302.7166,880.77047 v 0 c -14,19.9 -29.3,37.8 -45.1,53.3 v 0 c 0,0 31.9,19.4 -10.6,159.40003 -42.5,140 97.9,235.6 97.9,235.6 -43,-119.2 -22.2,-123.3 40.2,-248.1 62.4,-124.80003 -82.4,-200.20003 -82.4,-200.20003 z"
   id="path88"
   inkscape:connector-curvature="0"
   style="fill:#502d16" /><path
   class="st10"
   d="m 1302.7166,880.77047 v 0 c -14,19.9 -29.3,37.8 -45.1,53.3 v 0 c 0,0 31.9,19.4 -10.6,159.40003 -6.2,20.6 -8.5,40.2 -7.9,58.7 v 0 c 16.2,-99.7 41.1,-109.1 88.2,-159.10003 26,-27.6 19,-63.8 7.4,-90.6 -17.6,-14.2 -32,-21.7 -32,-21.7 z"
   id="path90"
   inkscape:connector-curvature="0"
   style="fill:#502d16" /><path
   class="st12"
   d="m 1157.7166,573.37047 c -97.4,0 -186.70004,63.5 -186.70004,177.7 0,60.2 29.10004,119.7 68.60004,163.9 61.5,68.8 174.7,68.8 236.2,0 39.5,-44.2 68.6,-103.8 68.6,-163.9 0.1,-114.2 -89.3,-177.7 -186.7,-177.7 z"
   id="path92"
   inkscape:connector-curvature="0"
   style="fill:#fd965b" /><circle
   class="st12"
   cx="1337.5166"
   cy="796.37048"
   r="46.599998"
   id="circle94"
   style="fill:#fd965b" /><circle
   class="st12"
   cx="978.01654"
   cy="796.37048"
   r="46.599998"
   id="circle96"
   style="fill:#fd965b" /><path
   class="st11"
   d="m 1298.7166,584.47047 c -0.1,-0.1 -0.2,-0.2 -0.3,-0.3 -31.3,-33.2 -71.5,-54.5 -115.1,-61.3 -0.3,-0.1 -0.7,-0.1 -1,-0.1 -3,-0.5 -6.1,-0.9 -9.2,-1.2 -1.2,-0.1 -2.4,-0.2 -3.7,-0.3 -2.2,-0.2 -4.4,-0.4 -6.6,-0.5 -3.4,-0.2 -6.9,-0.3 -10.4,-0.3 -2.9,0 -5.8,0.1 -8.6,0.2 -1,0 -2.1,0.1 -3.1,0.1 -2.2,0.1 -4.3,0.3 -6.5,0.5 -1.8,0.2 -3.7,0.4 -5.5,0.6 0,0 -0.1,0 -0.1,0 0,0 0,0 0,0 -101.1,12.2 -185.40004,101.6 -187.90004,237 -9.5,94.7 47.1,207.7 47.1,207.7 -33.7,-82.4 -3.8,-189.9 -3.8,-189.9 8.8,-16.9 24.20004,-29.5 42.60004,-34.7 30.1,-8.6 61.7,-20.1 93.6,-34.6 33.4,-15.2 64.2,-32.2 91.5,-50.1 50.9,58.1 108.2,95.5 152.4,101.9 -1.1,-73.4 -26.4,-133.2 -65.4,-174.7 0,0 0,0 0,0 z"
   id="path98"
   inkscape:connector-curvature="0"
   style="fill:#502d16" /><path
   class="st11"
   d="m 1391.2166,1006.6705 -17.4,-0.1 c 0,0 -7.5,20.6 15.1,60.4 22.6,39.8 53.2,28.3 53.2,28.3 -38,-9.1 -50.9,-88.6 -50.9,-88.6 z"
   id="path100"
   inkscape:connector-curvature="0"
   style="fill:#502d16" /><g
   id="g108"
   transform="translate(-305.08344,-215.62953)">
					<path
   class="st13"
   d="m 1642.4,952.2 c -10.9,-2.4 -45.7,-9.1 -83.9,-4.3 -46.2,5.8 -77.6,13.7 -95.7,11.9 -18.1,1.8 -49.5,-6.1 -95.7,-11.9 -38.2,-4.8 -73,1.9 -83.9,4.3 -2.1,0.5 -3.5,2.3 -3.5,4.4 v 15 c 0,1.8 1,3.4 2.7,4.1 13.6,5.9 14.8,38.7 18.4,62.4 3.8,25.2 35.1,30 67.6,30.1 21.2,0.1 37.5,-3.2 49.3,-8.7 24.1,-11.1 28.2,-69.2 30.5,-74.4 2.3,-5.2 14.6,-4.1 14.6,-4.1 0,0 12.3,-1.2 14.6,4.1 2.3,5.3 6.4,63.3 30.5,74.4 11.8,5.4 28.2,8.8 49.3,8.7 32.5,-0.2 63.8,-5 67.6,-30.1 3.6,-23.7 4.8,-56.5 18.4,-62.4 1.6,-0.7 2.7,-2.4 2.7,-4.1 v -15 c 0.1,-2.1 -1.4,-3.9 -3.5,-4.4 z"
   id="path102"
   inkscape:connector-curvature="0"
   style="fill:#2b6668" />
					<path
   class="st12"
   d="m 1407.5,963.2 c -26.8,-4.5 -50.6,-6.3 -57.1,-6.7 -0.8,-0.1 -1.6,-0.1 -2.4,-0.2 -5.6,-0.4 -41.3,-1.7 -40.5,37.7 0.9,42.7 4.1,59.1 32.2,63.2 28.1,4.1 48.3,3.2 62.9,-3.8 14.6,-7 22.2,-12.9 29.5,-43.3 7.3,-30.4 4.2,-42 -24.6,-46.9 z"
   id="path104"
   inkscape:connector-curvature="0"
   style="fill:#fd965b" />
					<path
   class="st12"
   d="m 1577.7,956.4 c -0.8,0.1 -1.6,0.1 -2.4,0.2 -6.5,0.4 -30.3,2.1 -57.1,6.7 -28.7,4.9 -31.9,16.5 -24.6,46.9 7.3,30.4 14.9,36.3 29.5,43.3 14.6,7 34.8,7.9 62.9,3.8 28.1,-4.1 31.3,-20.5 32.2,-63.2 0.8,-39.5 -34.9,-38.2 -40.5,-37.7 z"
   id="path106"
   inkscape:connector-curvature="0"
   style="fill:#fd965b" />
				</g><path
   class="st14"
   d="m 1196.9166,1008.4705 c -18.4,37.4 -72.9,34.3 -86.6,-5.1 -0.4,-1.3 -0.7,-2.1 -0.7,-2.4 l -169.80004,52 v 427.4 h 215.30004 220.5 v -425.8 l -175,-53.6 z"
   id="path110"
   inkscape:connector-curvature="0"
   style="fill:#335352" /><path
   class="st12"
   d="m 981.01656,1332.1705 h -186.6 c -1.3,0 -3.8,0 -5.3,-3.4 -0.9,-2.1 -0.7,-3.6 -0.2,-4.6 l 199.6,-174.1 c 23.30004,-20.3 25.70004,-55.7 5.4,-79 -20.3,-23.3 -55.7,-25.7 -79,-5.4 l -203.6,177.5 c -1.8,1.6 -3.5,3.3 -5.1,5 -31.2,35.2 -38.6,83.6 -19.3,126.5 19.3,42.9 60.5,69.5 107.5,69.5 h 186.6 c 30.90004,0 56.00004,-25.1 56.00004,-56 0,-31 -25,-56 -56.00004,-56 z"
   id="path112"
   inkscape:connector-curvature="0"
   style="fill:#fd965b" /><path
   class="st14"
   d="m 914.91656,1065.5705 -149.7,130.6 c 12.2,28.8 35.8,62.3 81.5,77.5 l 141.8,-123.6 c 23.30004,-20.3 25.70004,-55.7 5.4,-79 -20.3,-23.4 -55.7,-25.8 -79,-5.5 z"
   id="path114"
   inkscape:connector-curvature="0"
   style="fill:#335352" /><path
   class="st12"
   d="m 1604.1166,1243.0705 -203.6,-177.5 c -23.3,-20.3 -58.7,-17.9 -79,5.4 -20.3,23.3 -17.9,58.7 5.4,79 l 199.6,174.1 c 0.5,1.1 0.7,2.6 -0.2,4.6 -1.5,3.4 -4,3.4 -5.3,3.4 h -186.6 c -30.9,0 -56,25.1 -56,56 0,30.9 25.1,56 56,56 h 186.6 c 47,0 88.2,-26.6 107.5,-69.5 19.3,-42.9 11.9,-91.3 -19.3,-126.5 -1.6,-1.7 -3.3,-3.4 -5.1,-5 z"
   id="path116"
   inkscape:connector-curvature="0"
   style="fill:#fd965b" /><path
   class="st14"
   d="m 1321.6166,1070.9705 c -20.3,23.3 -17.9,58.7 5.4,79 l 141.8,123.6 c 45.7,-15.2 69.4,-48.7 81.5,-77.5 l -149.7,-130.6 c -23.3,-20.2 -58.7,-17.8 -79,5.5 z"
   id="path118"
   inkscape:connector-curvature="0"
   style="fill:#335352" /><g
   id="g128"
   transform="translate(-305.08344,-215.62953)">
					<path
   class="st3"
   d="m 1795.1,1270.5 h -661.3 c -12.8,0 -23.3,10.4 -23.3,23.3 v 417.7 h 707.8 v -417.7 c 0.1,-12.9 -10.3,-23.3 -23.2,-23.3 z"
   id="path120"
   inkscape:connector-curvature="0"
   style="fill:#ffffe7" />
					<polygon
   class="st4"
   points="1818.4,1711.5 1818.4,1362.5 1110.6,1607.2 1110.6,1711.5 "
   id="polygon122"
   style="fill:#edecd6" />
					<circle
   class="st15"
   cx="1464.5"
   cy="1491"
   r="34.599998"
   id="circle124"
   style="fill:#8d978f" />
					<path
   class="st16"
   d="m 1493.6,1475.9 c 0,19.1 -15.5,34.6 -34.6,34.6 -12,0 -22.6,-6.1 -28.8,-15.4 2,17.2 16.7,30.5 34.4,30.5 19.1,0 34.6,-15.5 34.6,-34.6 0,-7.1 -2.1,-13.7 -5.8,-19.2 0.1,1.3 0.2,2.7 0.2,4.1 z"
   id="path126"
   inkscape:connector-curvature="0"
   style="fill:#7e8780" />
				</g><path
   class="st17"
   d="m 1066.4166,805.87047 c -11.5,0 -21.2,-7.7 -24.2,-18.3 -0.6,2.2 -1,4.5 -1,6.9 0,13.9 11.3,25.2 25.2,25.2 13.9,0 25.2,-11.3 25.2,-25.2 0,-2.4 -0.3,-4.7 -1,-6.9 -3,10.5 -12.7,18.3 -24.2,18.3 z"
   id="path130"
   inkscape:connector-curvature="0"
   style="fill:#914c3a" /><path
   class="st17"
   d="m 1249.1166,805.87047 c -11.5,0 -21.2,-7.7 -24.2,-18.3 -0.6,2.2 -1,4.5 -1,6.9 0,13.9 11.3,25.2 25.2,25.2 13.9,0 25.2,-11.3 25.2,-25.2 0,-2.4 -0.3,-4.7 -1,-6.9 -2.9,10.5 -12.7,18.3 -24.2,18.3 z"
   id="path132"
   inkscape:connector-curvature="0"
   style="fill:#914c3a" /><ellipse
   class="st17"
   cx="1157.7166"
   cy="906.47046"
   rx="15.1"
   ry="22.6"
   id="ellipse134"
   style="fill:#914c3a" /><path
   class="st3"
   d="m 1157.7166,883.87047 c -6.6,0 -12.2,6.4 -14.2,15.2 h 28.5 c -2.1,-8.9 -7.7,-15.2 -14.3,-15.2 z"
   id="path136"
   inkscape:connector-curvature="0"
   style="fill:#ffffe7" /><rect
   style="fill:#393e46;stroke-width:0.99998122;fill-opacity:1"
   id="rect140"
   height="30.399429"
   width="509.29044"
   class="st18"
   transform="rotate(-73.219533)"
   y="2138.6445"
   x="-896.02246" /><rect
   style="fill:#393e46;stroke-width:1.00002527;fill-opacity:1"
   id="rect142"
   height="368.50931"
   width="30.400766"
   class="st18"
   transform="rotate(-40.156958)"
   y="1653.1849"
   x="833.18817" /><circle
   style="fill:#97a098"
   id="circle144"
   r="25.6"
   cy="994.27051"
   cx="1947.0166"
   class="st19" /><path
   style="fill:#393e46;fill-opacity:1"
   inkscape:connector-curvature="0"
   id="path146"
   d="m 1925.0166,1023.9705 c 4.7,5.1 11.4,8.3 18.8,8.3 4,0 7.8,-1 11.2,-2.6 l 10,-33.20003 -29.1,-8.8 z"
   class="st20" /><path
   style="fill:#717b8a;fill-opacity:1"
   inkscape:connector-curvature="0"
   id="path148"
   d="m 1624.5166,601.77047 c -1.3,-1.6 -3.8,-1.8 -5.4,-0.5 l -1.1,0.9 c -1.6,1.3 -1.8,3.8 -0.5,5.4 l 104.2,125.3 c 1.3,1.6 3.8,1.8 5.4,0.5 l 1.1,-0.9 c 1.6,-1.3 1.8,-3.8 0.5,-5.4 z"
   class="st21" /><path
   class="st20"
   d="m 1723.8166,704.07047 -15.3,12.9 29.1,35 c 1.6,1.9 4.5,2.2 6.4,0.6 1.9,-1.6 2.2,-4.5 0.6,-6.4 l -2.3,-2.8 8.6,-7.1 z"
   id="path152"
   inkscape:connector-curvature="0"
   style="fill:#393e46;fill-opacity:1" /><polygon
   class="st20"
   points="2041.6,966.2 2013.7,932.6 2005.7,939.3 2035.2,974.3 "
   id="polygon154"
   style="fill:#393e46;fill-opacity:1"
   transform="translate(-305.08344,-215.62953)" /><path
   style="fill:#9ba59d"
   inkscape:connector-curvature="0"
   id="path150"
   d="m 1619.1166,609.47047 -143,75.2 c -5.8,3.1 -7.4,10.8 -3.2,15.8 l 65.4,78.7 65.4,78.7 c 4.2,5.1 12.1,5 16.1,-0.2 l 100.1,-126.8 -50.5,-60.7 z"
   class="st22" /><polygon
   style="fill:#393e46;fill-opacity:1"
   id="polygon158"
   points="2128.2,1682.8 2141.5,1638.8 2109.7,1638.8 2096.8,1681.5 2096.8,1682.8 "
   class="st20"
   transform="translate(-305.08344,-215.62953)" /><path
   class="st18"
   d="m 1811.5166,1438.4705 c -61.4,0 -115.4,22.8 -146.4,57.3 h 292.8 c -31,-34.4 -85,-57.3 -146.4,-57.3 z"
   id="path160"
   inkscape:connector-curvature="0"
   style="fill:#393e46;fill-opacity:1" /><path
   class="st23"
   d="m 1728.7166,1453.4705 c 17.8,10.9 48.2,18.1 82.7,18.1 34.5,0 64.9,-7.2 82.7,-18.1 -24.6,-9.6 -52.8,-15 -82.7,-15 -29.9,0 -58.1,5.5 -82.7,15 z"
   id="path164"
   inkscape:connector-curvature="0"
   style="fill:#717b8a;fill-opacity:1" /><circle
   style="fill:#393e46;fill-opacity:1"
   id="circle168"
   r="25.6"
   cy="994.27051"
   cx="1947.0166"
   class="st19" /><path
   style="fill:#393e46;fill-opacity:1"
   inkscape:connector-curvature="0"
   id="path170"
   d="m 1683.6166,606.57047 c -13.1,-15.8 -36.5,-17.9 -52.3,-4.8 l -4,3.3 98.6,118.6 4,-3.3 c 15.8,-13.1 17.9,-36.5 4.8,-52.3 z"
   class="st18" /><path
   style="fill:#393e46;fill-opacity:1"
   inkscape:connector-curvature="0"
   id="path172"
   d="m 1631.3166,601.77047 -4,3.3 23.6,28.4 4,-3.3 c 10.5,-8.8 15,-22.1 12.9,-34.7 -12.1,-4.4 -26,-2.5 -36.5,6.3 z"
   class="st22" /><path
   style="fill:#393e46;fill-opacity:1"
   inkscape:connector-curvature="0"
   id="path174"
   d="m 1619.1166,609.47047 -143,75.2 c -5.8,3.1 -7.4,10.8 -3.2,15.8 l 65.4,78.7 65.4,78.7 c 4.2,5.1 12.1,5 16.1,-0.2 l 100.1,-126.8 -50.5,-60.7 z"
   class="st22" /><path
   style="fill:#717b8a;fill-opacity:1"
   inkscape:connector-curvature="0"
   id="path176"
   d="m 1632.8166,611.87047 c -1.3,-1.6 -3.8,-1.8 -5.4,-0.5 l -1.1,0.9 c -1.6,1.3 -1.8,3.8 -0.5,5.4 l 104.2,125.3 c 1.3,1.6 3.8,1.8 5.4,0.5 l 1.1,-0.9 c 1.6,-1.3 1.8,-3.8 0.5,-5.4 z"
   class="st21" /><path
   style="fill:#393e46;fill-opacity:1"
   inkscape:connector-curvature="0"
   id="path178"
   d="m 1471.2166,697.17047 c 0.4,1.2 1,2.3 1.8,3.3 l 65.4,78.7 65.4,78.7 c 4.2,5.1 12.1,5 16.1,-0.2 l 100,-126.7 -77.9,-93.7 z"
   class="st24" /><g
   id="g210"
   transform="translate(-305.08344,-215.62953)">
				<path
   style="fill:#a07457"
   inkscape:connector-curvature="0"
   id="path184"
   d="m 2010.5,1579.7 h -67.2 -64.2 c -5.5,0 -9.6,4.9 -8.6,10.3 l 22,121.4 h 50.8 50.8 l 22.5,-124.4 c 0.6,-3.8 -2.3,-7.3 -6.1,-7.3 z"
   class="st25" />
				<path
   style="fill:#b78b68"
   inkscape:connector-curvature="0"
   id="path186"
   d="m 1876,1579.7 c -3.9,0 -6.8,3.5 -6.1,7.3 l 20.9,115.6 h 40 39 c 6.8,0 12.7,-4.9 13.9,-11.6 l 20.1,-111.2 h -60.6 -67.2 z"
   class="st26" />
				<path
   style="fill:#7d966c"
   inkscape:connector-curvature="0"
   id="path188"
   d="m 1943.5,1375.6 c -13.5,10.6 -22.2,27 -22.2,45.5 0,18.5 8.7,34.9 22.2,45.5 13.5,-10.6 22.2,-27 22.2,-45.5 0,-18.5 -8.7,-35 -22.2,-45.5 z"
   class="st27" />
				<path
   style="fill:#667c55"
   inkscape:connector-curvature="0"
   id="path190"
   d="m 1943.5,1458 c -12.5,-9.7 -20.8,-24.5 -22,-41.2 -0.1,1.4 -0.2,2.8 -0.2,4.2 0,18.5 8.7,34.9 22.2,45.5 13.5,-10.6 22.2,-27 22.2,-45.5 0,-1.4 -0.1,-2.8 -0.2,-4.2 -1.2,16.7 -9.6,31.5 -22,41.2 z"
   class="st28" />
				<path
   style="fill:#7d966c"
   inkscape:connector-curvature="0"
   id="path192"
   d="m 1965.7,1470 c -12.5,8.9 -19.5,22.6 -20.2,36.8 13.6,4.1 28.9,2.1 41.4,-6.8 12.5,-8.9 19.5,-22.6 20.2,-36.8 -13.6,-4 -28.9,-2 -41.4,6.8 z"
   class="st27" />
				<path
   style="fill:#667c55"
   inkscape:connector-curvature="0"
   id="path194"
   d="m 1987.3,1493.5 c -11.9,10.6 -27.2,14.8 -41.8,13.1 0,0.1 0,0.1 0,0.2 13.6,4.1 28.9,2.1 41.4,-6.8 12.5,-8.9 19.5,-22.6 20.2,-36.8 -0.8,-0.2 -1.6,-0.5 -2.5,-0.7 -2,11.6 -7.8,22.6 -17.3,31 z"
   class="st28" />
				<path
   style="fill:#7d966c"
   inkscape:connector-curvature="0"
   id="path196"
   d="m 1971.6,1527.5 c -14.2,5.7 -24.2,17.5 -28.1,31.2 12.3,7.1 27.7,8.7 41.9,3 14.2,-5.7 24.2,-17.5 28.1,-31.2 -12.4,-7.1 -27.7,-8.7 -41.9,-3 z"
   class="st27" />
				<path
   style="fill:#667c55"
   inkscape:connector-curvature="0"
   id="path198"
   d="m 1987.3,1555.4 c -14,7.5 -29.9,8.2 -43.7,3.1 0,0.1 0,0.1 -0.1,0.2 12.3,7.1 27.7,8.7 41.9,3 14.2,-5.7 24.2,-17.5 28.1,-31.2 -0.7,-0.4 -1.5,-0.8 -2.3,-1.2 -4.6,10.8 -12.8,20.1 -23.9,26.1 z"
   class="st28" />
				<path
   style="fill:#7d966c"
   inkscape:connector-curvature="0"
   id="path200"
   d="m 1920.8,1470 c -12.5,-8.9 -27.8,-10.8 -41.4,-6.8 0.7,14.2 7.6,28 20.2,36.8 12.5,8.9 27.8,10.8 41.4,6.8 -0.7,-14.2 -7.7,-27.9 -20.2,-36.8 z"
   class="st27" />
				<path
   style="fill:#667c55"
   inkscape:connector-curvature="0"
   id="path202"
   d="m 1899.1,1493.5 c -9.5,-8.4 -15.2,-19.4 -17.3,-30.9 -0.8,0.2 -1.7,0.4 -2.5,0.7 0.7,14.2 7.6,28 20.2,36.8 12.5,8.9 27.8,10.8 41.4,6.8 0,-0.1 0,-0.1 0,-0.2 -14.6,1.6 -29.9,-2.6 -41.8,-13.2 z"
   class="st28" />
				<path
   style="fill:#7d966c"
   inkscape:connector-curvature="0"
   id="path204"
   d="m 1914.9,1527.5 c -14.2,-5.7 -29.6,-4.1 -41.9,3 3.9,13.7 13.9,25.4 28.1,31.2 14.2,5.7 29.6,4.1 41.9,-3 -4,-13.7 -13.9,-25.4 -28.1,-31.2 z"
   class="st27" />
				<path
   style="fill:#667c55"
   inkscape:connector-curvature="0"
   id="path206"
   d="m 1899.2,1555.4 c -11.1,-6 -19.3,-15.3 -23.9,-26.1 -0.8,0.4 -1.5,0.8 -2.3,1.2 3.9,13.7 13.9,25.4 28.1,31.2 14.2,5.7 29.6,4.1 41.9,-3 0,-0.1 0,-0.1 -0.1,-0.2 -13.8,5.1 -29.7,4.4 -43.7,-3.1 z"
   class="st28" />
				<rect
   style="fill:#667c55"
   id="rect208"
   height="120.5"
   width="6.6999998"
   class="st28"
   y="1459.2"
   x="1940.2" />
			</g><path
   style="fill:#393e46;fill-opacity:1"
   inkscape:connector-curvature="0"
   id="path214"
   d="m 2063.6166,254.97047 h -373.2 c -5.7,0 -10.3,4.6 -10.3,10.3 v 242.4 c 0,5.7 4.6,10.3 10.3,10.3 h 373.2 c 5.7,0 10.3,-4.6 10.3,-10.3 v -242.5 c -0.1,-5.6 -4.7,-10.2 -10.3,-10.2 z"
   class="st2" /><path
   style="fill:#5edaf7;fill-opacity:1"
   inkscape:connector-curvature="0"
   id="path216"
   d="m 2053.2166,299.27047 h -352.4 c -4.2,0 -7.6,3.4 -7.6,7.6 v 190.4 c 0,4.2 3.4,7.6 7.6,7.6 h 352.4 c 4.2,0 7.6,-3.4 7.6,-7.6 v -190.4 c -0.1,-4.2 -3.4,-7.6 -7.6,-7.6 z"
   class="st29" /><circle
   class="st12"
   cx="1977.3164"
   cy="279.77048"
   r="7.6999998"
   id="circle218"
   style="fill:#f23513;fill-opacity:1" /><circle
   class="st27"
   cx="2005.6165"
   cy="279.77048"
   r="7.6999998"
   id="circle220"
   style="fill:#7d966c" /><circle
   class="st24"
   cx="2033.9165"
   cy="279.77048"
   r="7.6999998"
   id="circle222"
   style="fill:#8f9991" /><path
   class="st24"
   d="m 1852.7166,325.17047 h -125.5 c -2.4,0 -4.4,2 -4.4,4.4 0,2.4 2,4.4 4.4,4.4 h 125.5 c 2.4,0 4.4,-2 4.4,-4.4 0,-2.4 -2,-4.4 -4.4,-4.4 z"
   id="path226"
   inkscape:connector-curvature="0"
   style="fill:#8f9991" /><path
   class="st27"
   d="m 2027.4166,325.17047 h -126.9 c -2,0 -3.7,1.6 -3.7,3.7 v 1.4 c 0,2 1.6,3.7 3.7,3.7 h 126.9 c 2,0 3.7,-1.6 3.7,-3.7 v -1.4 c 0,-2 -1.6,-3.7 -3.7,-3.7 z"
   id="path228"
   inkscape:connector-curvature="0"
   style="fill:#7d966c" /><path
   class="st24"
   d="m 1852.7166,354.17047 h -125.5 c -2.4,0 -4.4,2 -4.4,4.4 0,2.4 2,4.4 4.4,4.4 h 125.5 c 2.4,0 4.4,-2 4.4,-4.4 0,-2.4 -2,-4.4 -4.4,-4.4 z"
   id="path230"
   inkscape:connector-curvature="0"
   style="fill:#8f9991" /><path
   class="st27"
   d="m 2027.4166,354.17047 h -126.9 c -2,0 -3.7,1.6 -3.7,3.7 v 1.4 c 0,2 1.6,3.7 3.7,3.7 h 126.9 c 2,0 3.7,-1.6 3.7,-3.7 v -1.4 c 0,-2 -1.6,-3.7 -3.7,-3.7 z"
   id="path232"
   inkscape:connector-curvature="0"
   style="fill:#7d966c" /><path
   class="st24"
   d="m 1852.7166,383.17047 h -125.5 c -2.4,0 -4.4,2 -4.4,4.4 0,2.4 2,4.4 4.4,4.4 h 125.5 c 2.4,0 4.4,-2 4.4,-4.4 0,-2.4 -2,-4.4 -4.4,-4.4 z"
   id="path234"
   inkscape:connector-curvature="0"
   style="fill:#8f9991" /><path
   class="st27"
   d="m 2027.4166,383.17047 h -126.9 c -2,0 -3.7,1.6 -3.7,3.7 v 1.4 c 0,2 1.6,3.7 3.7,3.7 h 126.9 c 2,0 3.7,-1.6 3.7,-3.7 v -1.4 c 0,-2 -1.6,-3.7 -3.7,-3.7 z"
   id="path236"
   inkscape:connector-curvature="0"
   style="fill:#7d966c" /><path
   class="st12"
   d="m 1852.7166,412.17047 h -125.5 c -2.4,0 -4.4,2 -4.4,4.4 0,2.4 2,4.4 4.4,4.4 h 125.5 c 2.4,0 4.4,-2 4.4,-4.4 0,-2.4 -2,-4.4 -4.4,-4.4 z"
   id="path238"
   inkscape:connector-curvature="0"
   style="fill:#f23513;fill-opacity:1" /><path
   class="st24"
   d="m 2027.4166,412.17047 h -126.9 c -2,0 -3.7,1.6 -3.7,3.7 v 1.4 c 0,2 1.6,3.7 3.7,3.7 h 126.9 c 2,0 3.7,-1.6 3.7,-3.7 v -1.4 c 0,-2.1 -1.6,-3.7 -3.7,-3.7 z"
   id="path240"
   inkscape:connector-curvature="0"
   style="fill:#8f9991" /><path
   class="st12"
   d="m 1852.7166,441.17047 h -125.5 c -2.4,0 -4.4,2 -4.4,4.4 0,2.4 2,4.4 4.4,4.4 h 125.5 c 2.4,0 4.4,-2 4.4,-4.4 0,-2.4 -2,-4.4 -4.4,-4.4 z"
   id="path242"
   inkscape:connector-curvature="0"
   style="fill:#f23513;fill-opacity:1" /><path
   class="st24"
   d="m 2027.4166,441.17047 h -126.9 c -2,0 -3.7,1.6 -3.7,3.7 v 1.4 c 0,2 1.6,3.7 3.7,3.7 h 126.9 c 2,0 3.7,-1.6 3.7,-3.7 v -1.4 c 0,-2.1 -1.6,-3.7 -3.7,-3.7 z"
   id="path244"
   inkscape:connector-curvature="0"
   style="fill:#8f9991" /><path
   class="st12"
   d="m 1852.7166,470.17047 h -125.5 c -2.4,0 -4.4,2 -4.4,4.4 0,2.4 2,4.4 4.4,4.4 h 125.5 c 2.4,0 4.4,-2 4.4,-4.4 0,-2.4 -2,-4.4 -4.4,-4.4 z"
   id="path246"
   inkscape:connector-curvature="0"
   style="fill:#f23513;fill-opacity:1" /><path
   class="st24"
   d="m 2027.4166,470.17047 h -126.9 c -2,0 -3.7,1.6 -3.7,3.7 v 1.4 c 0,2 1.6,3.7 3.7,3.7 h 126.9 c 2,0 3.7,-1.6 3.7,-3.7 v -1.4 c 0,-2.1 -1.6,-3.7 -3.7,-3.7 z"
   id="path248"
   inkscape:connector-curvature="0"
   style="fill:#8f9991" /><path
   style="fill:#393e46;fill-opacity:1"
   inkscape:connector-curvature="0"
   id="path254"
   d="m 669.61656,461.67047 h -373.1 c -5.7,0 -10.3,4.6 -10.3,10.3 v 242.4 c 0,5.7 4.6,10.3 10.3,10.3 h 373.2 c 5.7,0 10.3,-4.6 10.3,-10.3 v -242.4 c -0.1,-5.7 -4.7,-10.3 -10.4,-10.3 z"
   class="st2" /><path
   style="fill:#5edaf7;fill-opacity:1"
   inkscape:connector-curvature="0"
   id="path256"
   d="m 659.21656,506.07047 h -352.4 c -4.2,0 -7.6,3.4 -7.6,7.6 v 190.4 c 0,4.2 3.4,7.6 7.6,7.6 h 352.4 c 4.2,0 7.6,-3.4 7.6,-7.6 v -190.5 c 0,-4.1 -3.4,-7.5 -7.6,-7.5 z"
   class="st29" /><circle
   class="st12"
   cx="583.41656"
   cy="486.5705"
   r="7.6999998"
   id="circle258"
   style="fill:#f23513;fill-opacity:1" /><circle
   class="st27"
   cx="611.71655"
   cy="486.5705"
   r="7.6999998"
   id="circle260"
   style="fill:#7d966c" /><circle
   class="st24"
   cx="640.01654"
   cy="486.5705"
   r="7.6999998"
   id="circle262"
   style="fill:#8f9991" /><path
   style="fill:#f23513;fill-opacity:1"
   inkscape:connector-curvature="0"
   id="path266"
   d="m 458.81656,618.97047 h -125.5 c -2.4,0 -4.4,2 -4.4,4.4 0,2.4 2,4.4 4.4,4.4 h 125.5 c 2.4,0 4.4,-2 4.4,-4.4 -0.1,-2.5 -2,-4.4 -4.4,-4.4 z"
   class="st12" /><path
   style="fill:#8f9991"
   inkscape:connector-curvature="0"
   id="path268"
   d="m 633.51656,618.97047 h -126.9 c -2,0 -3.7,1.6 -3.7,3.7 v 1.4 c 0,2 1.6,3.7 3.7,3.7 h 126.9 c 2,0 3.7,-1.6 3.7,-3.7 v -1.4 c 0,-2.1 -1.7,-3.7 -3.7,-3.7 z"
   class="st24" /><path
   style="fill:#f23513;fill-opacity:1"
   inkscape:connector-curvature="0"
   id="path270"
   d="m 458.81656,647.97047 h -125.5 c -2.4,0 -4.4,2 -4.4,4.4 0,2.4 2,4.4 4.4,4.4 h 125.5 c 2.4,0 4.4,-2 4.4,-4.4 -0.1,-2.5 -2,-4.4 -4.4,-4.4 z"
   class="st12" /><path
   style="fill:#8f9991"
   inkscape:connector-curvature="0"
   id="path272"
   d="m 633.51656,647.97047 h -126.9 c -2,0 -3.7,1.6 -3.7,3.7 v 1.4 c 0,2 1.6,3.7 3.7,3.7 h 126.9 c 2,0 3.7,-1.6 3.7,-3.7 v -1.4 c 0,-2.1 -1.7,-3.7 -3.7,-3.7 z"
   class="st24" /><path
   style="fill:#f23513;fill-opacity:1"
   inkscape:connector-curvature="0"
   id="path274"
   d="m 458.81656,676.97047 h -125.5 c -2.4,0 -4.4,2 -4.4,4.4 0,2.4 2,4.4 4.4,4.4 h 125.5 c 2.4,0 4.4,-2 4.4,-4.4 -0.1,-2.5 -2,-4.4 -4.4,-4.4 z"
   class="st12" /><path
   style="fill:#8f9991"
   inkscape:connector-curvature="0"
   id="path276"
   d="m 633.51656,676.97047 h -126.9 c -2,0 -3.7,1.6 -3.7,3.7 v 1.4 c 0,2 1.6,3.7 3.7,3.7 h 126.9 c 2,0 3.7,-1.6 3.7,-3.7 v -1.4 c 0,-2.1 -1.7,-3.7 -3.7,-3.7 z"
   class="st24" /><rect
   style="fill:#8f9991"
   id="rect278"
   height="65"
   width="131.5"
   class="st24"
   y="528.17047"
   x="331.71655" /><rect
   style="fill:#7d966c"
   id="rect280"
   height="65"
   width="131.5"
   class="st27"
   y="528.17047"
   x="502.91656" /><path
   style="fill:#393e46;fill-opacity:1"
   inkscape:connector-curvature="0"
   id="path284"
   d="m 2124.3166,758.67047 h -100.9 c -3.2,0 -5.8,2.6 -5.8,5.8 v 194.6 c 0,3.2 2.6,5.8 5.8,5.8 h 100.9 c 3.2,0 5.8,-2.6 5.8,-5.8 v -194.7 c -0.1,-3.1 -2.6,-5.7 -5.8,-5.7 z"
   class="st2" /><path
   style="fill:#5edaf7;fill-opacity:1"
   inkscape:connector-curvature="0"
   id="path286"
   d="m 2121.5166,778.67047 h -95.3 c -0.9,0 -1.6,0.7 -1.6,1.6 v 156.7 c 0,0.9 0.7,1.6 1.6,1.6 h 95.3 c 0.9,0 1.6,-0.7 1.6,-1.6 v -156.7 c 0,-0.9 -0.7,-1.6 -1.6,-1.6 z"
   class="st29" /><path
   style="fill:#609389"
   inkscape:connector-curvature="0"
   id="path288"
   d="m 2084.7166,768.47047 h -21.7 c -1,0 -1.7,0.7 -1.7,1.6 0,0.9 0.8,1.6 1.7,1.6 h 21.7 c 1,0 1.7,-0.7 1.7,-1.6 0,-0.9 -0.7,-1.6 -1.7,-1.6 z"
   class="st30" /><circle
   style="fill:#9ee2d5"
   id="circle290"
   r="6.0999999"
   cy="952.47046"
   cx="2073.8164"
   class="st0" /><path
   style="fill:#7d966c"
   inkscape:connector-curvature="0"
   id="path292"
   d="m 2121.2166,778.67047 h -94.7 c -1.1,0 -1.9,0.9 -1.9,1.9 v 18.9 h 98.6 v -18.9 c -0.1,-1 -0.9,-1.9 -2,-1.9 z"
   class="st27" /><rect
   style="fill:#f23513;fill-opacity:1"
   id="rect294"
   height="47.799999"
   width="68.199997"
   class="st12"
   y="814.37048"
   x="2040.2166" /><rect
   style="fill:#8f9991"
   id="rect296"
   height="47.799999"
   width="68.199997"
   class="st24"
   y="873.47046"
   x="2040.2166" /><path
   style="fill:#393e46;fill-opacity:1"
   inkscape:connector-curvature="0"
   id="path300"
   d="m 350.11656,897.97047 h -100.9 c -3.2,0 -5.8,2.6 -5.8,5.8 v 194.60003 c 0,3.2 2.6,5.8 5.8,5.8 h 100.9 c 3.2,0 5.8,-2.6 5.8,-5.8 V 903.77047 c 0,-3.2 -2.6,-5.8 -5.8,-5.8 z"
   class="st2" /><path
   style="fill:#5edaf7;fill-opacity:1"
   inkscape:connector-curvature="0"
   id="path302"
   d="m 347.31656,917.97047 h -95.3 c -0.9,0 -1.6,0.7 -1.6,1.6 v 156.70003 c 0,0.9 0.7,1.6 1.6,1.6 h 95.3 c 0.9,0 1.6,-0.7 1.6,-1.6 V 919.57047 c 0.1,-0.9 -0.7,-1.6 -1.6,-1.6 z"
   class="st29" /><path
   style="fill:#609389"
   inkscape:connector-curvature="0"
   id="path304"
   d="m 310.51656,907.77047 h -21.7 c -1,0 -1.7,0.7 -1.7,1.6 0,0.9 0.8,1.6 1.7,1.6 h 21.7 c 1,0 1.7,-0.7 1.7,-1.6 0,-0.9 -0.7,-1.6 -1.7,-1.6 z"
   class="st30" /><circle
   style="fill:#9ee2d5"
   id="circle306"
   r="6.0999999"
   cy="1091.7705"
   cx="299.71655"
   class="st0" /><path
   style="fill:#7d966c"
   inkscape:connector-curvature="0"
   id="path308"
   d="m 347.01656,917.97047 h -94.7 c -1.1,0 -1.9,0.7 -1.9,1.5 v 14.9 h 98.6 v -14.9 c 0,-0.8 -0.9,-1.5 -2,-1.5 z"
   class="st27" /><rect
   style="fill:#8f9991"
   id="rect310"
   height="36.900002"
   width="36.900002"
   class="st24"
   y="942.97046"
   x="258.61658" /><rect
   style="fill:#f23513;fill-opacity:1"
   id="rect312"
   height="36.900002"
   width="36.900002"
   class="st12"
   y="942.97046"
   x="303.91656" /><rect
   style="fill:#aaafab"
   id="rect314"
   height="36.900002"
   width="36.900002"
   class="st31"
   y="987.57043"
   x="258.61658" /><rect
   style="fill:#3f8989"
   id="rect316"
   height="36.900002"
   width="36.900002"
   class="st32"
   y="987.57043"
   x="303.91656" /><rect
   style="fill:#f23513;fill-opacity:1"
   id="rect318"
   height="36.900002"
   width="36.900002"
   class="st12"
   y="1032.1705"
   x="258.61658" /><rect
   style="fill:#aaafab"
   id="rect320"
   height="36.900002"
   width="36.900002"
   class="st31"
   y="1032.1705"
   x="303.91656" /><path
   class="st33"
   d="m 1607.6166,1113.6705 h -12 c -4.4,0 -8,3.6 -8,8 0,4.4 3.6,8 8,8 h 12 c 4.4,0 8,-3.6 8,-8 0,-4.4 -3.6,-8 -8,-8 z"
   id="path326"
   inkscape:connector-curvature="0"
   style="fill:#5edaf7;fill-opacity:1" /><path
   class="st33"
   d="m 1672.2166,1113.6705 h -21 c -4.4,0 -8,3.6 -8,8 0,4.4 3.6,8 8,8 h 21 c 4.4,0 8,-3.6 8,-8 0,-4.4 -3.6,-8 -8,-8 z"
   id="path328"
   inkscape:connector-curvature="0"
   style="fill:#5edaf7;fill-opacity:1" /><path
   class="st33"
   d="m 1736.8166,1113.6705 h -21 c -4.4,0 -8,3.6 -8,8 0,4.4 3.6,8 8,8 h 21 c 4.4,0 8,-3.6 8,-8 0,-4.4 -3.6,-8 -8,-8 z"
   id="path330"
   inkscape:connector-curvature="0"
   style="fill:#5edaf7;fill-opacity:1" /><path
   class="st33"
   d="m 1801.4166,1113.6705 h -21 c -4.4,0 -8,3.6 -8,8 0,4.4 3.6,8 8,8 h 21 c 4.4,0 8,-3.6 8,-8 0,-4.4 -3.6,-8 -8,-8 z"
   id="path332"
   inkscape:connector-curvature="0"
   style="fill:#5edaf7;fill-opacity:1" /><path
   class="st33"
   d="m 1857.1166,1101.6705 c -4.4,0 -8,3.6 -8,8 v 4 h -4 c -4.4,0 -8,3.6 -8,8 0,4.4 3.6,8 8,8 h 12 c 4.4,0 8,-3.6 8,-8 v -12 c 0,-4.4 -3.6,-8 -8,-8 z"
   id="path334"
   inkscape:connector-curvature="0"
   style="fill:#5edaf7;fill-opacity:1" /><path
   class="st33"
   d="m 1857.1166,958.47047 c -4.4,0 -8,3.6 -8,8 v 23.2 c 0,4.4 3.6,8 8,8 4.4,0 8,-3.6 8,-8 v -23.2 c 0,-4.4 -3.6,-8 -8,-8 z"
   id="path336"
   inkscape:connector-curvature="0"
   style="fill:#5edaf7;fill-opacity:1" /><path
   class="st33"
   d="m 1857.1166,1030.0705 c -4.4,0 -8,3.6 -8,8 v 23.2 c 0,4.4 3.6,8 8,8 4.4,0 8,-3.6 8,-8 v -23.2 c 0,-4.4 -3.6,-8 -8,-8 z"
   id="path338"
   inkscape:connector-curvature="0"
   style="fill:#5edaf7;fill-opacity:1" /><path
   class="st33"
   d="m 1857.1166,886.87047 c -4.4,0 -8,3.6 -8,8 v 23.2 c 0,4.4 3.6,8 8,8 4.4,0 8,-3.6 8,-8 v -23.2 c 0,-4.4 -3.6,-8 -8,-8 z"
   id="path340"
   inkscape:connector-curvature="0"
   style="fill:#5edaf7;fill-opacity:1" /><path
   class="st33"
   d="m 1857.1166,815.27047 c -4.4,0 -8,3.6 -8,8 v 23.2 c 0,4.4 3.6,8 8,8 4.4,0 8,-3.6 8,-8 v -23.2 c 0,-4.4 -3.6,-8 -8,-8 z"
   id="path342"
   inkscape:connector-curvature="0"
   style="fill:#5edaf7;fill-opacity:1" /><path
   class="st33"
   d="m 1857.1166,743.67047 c -4.4,0 -8,3.6 -8,8 v 23.2 c 0,4.4 3.6,8 8,8 4.4,0 8,-3.6 8,-8 v -23.2 c 0,-4.4 -3.6,-8 -8,-8 z"
   id="path344"
   inkscape:connector-curvature="0"
   style="fill:#5edaf7;fill-opacity:1" /><path
   class="st33"
   d="m 1857.1166,600.47047 c -4.4,0 -8,3.6 -8,8 v 23.2 c 0,4.4 3.6,8 8,8 4.4,0 8,-3.6 8,-8 v -23.2 c 0,-4.4 -3.6,-8 -8,-8 z"
   id="path346"
   inkscape:connector-curvature="0"
   style="fill:#5edaf7;fill-opacity:1" /><path
   class="st33"
   d="m 1857.1166,672.07047 c -4.4,0 -8,3.6 -8,8 v 23.2 c 0,4.4 3.6,8 8,8 4.4,0 8,-3.6 8,-8 v -23.2 c 0,-4.4 -3.6,-8 -8,-8 z"
   id="path348"
   inkscape:connector-curvature="0"
   style="fill:#5edaf7;fill-opacity:1" /><path
   class="st33"
   d="m 1857.1166,540.07047 c -4.4,0 -8,3.6 -8,8 v 12 c 0,4.4 3.6,8 8,8 4.4,0 8,-3.6 8,-8 v -12 c 0,-4.4 -3.6,-8 -8,-8 z"
   id="path350"
   inkscape:connector-curvature="0"
   style="fill:#5edaf7;fill-opacity:1" /><path
   style="fill:#5edaf7;fill-opacity:1"
   inkscape:connector-curvature="0"
   id="path354"
   d="m 1908.5166,1217.9705 h -24 c -4.4,0 -8,3.6 -8,8 0,4.4 3.6,8 8,8 h 24 c 4.4,0 8,-3.6 8,-8 0,-4.4 -3.6,-8 -8,-8 z"
   class="st33" /><path
   style="fill:#5edaf7;fill-opacity:1"
   inkscape:connector-curvature="0"
   id="path356"
   d="m 1834.5166,1217.9705 h -24 c -4.4,0 -8,3.6 -8,8 0,4.4 3.6,8 8,8 h 24 c 4.4,0 8,-3.6 8,-8 0,-4.4 -3.6,-8 -8,-8 z"
   class="st33" /><path
   style="fill:#5edaf7;fill-opacity:1"
   inkscape:connector-curvature="0"
   id="path358"
   d="m 1760.5166,1217.9705 h -24 c -4.4,0 -8,3.6 -8,8 0,4.4 3.6,8 8,8 h 24 c 4.4,0 8,-3.6 8,-8 0,-4.4 -3.6,-8 -8,-8 z"
   class="st33" /><path
   style="fill:#5edaf7;fill-opacity:1"
   inkscape:connector-curvature="0"
   id="path360"
   d="m 2056.5166,1217.9705 h -24 c -4.4,0 -8,3.6 -8,8 0,4.4 3.6,8 8,8 h 24 c 4.4,0 8,-3.6 8,-8 0,-4.4 -3.6,-8 -8,-8 z"
   class="st33" /><path
   style="fill:#5edaf7;fill-opacity:1"
   inkscape:connector-curvature="0"
   id="path362"
   d="m 2073.8166,1161.3705 c -4.4,0 -8,3.6 -8,8 v 24 c 0,4.4 3.6,8 8,8 4.4,0 8,-3.6 8,-8 v -24 c 0,-4.4 -3.5,-8 -8,-8 z"
   class="st33" /><path
   style="fill:#5edaf7;fill-opacity:1"
   inkscape:connector-curvature="0"
   id="path364"
   d="m 1982.5166,1217.9705 h -24 c -4.4,0 -8,3.6 -8,8 0,4.4 3.6,8 8,8 h 24 c 4.4,0 8,-3.6 8,-8 0,-4.4 -3.6,-8 -8,-8 z"
   class="st33" /><path
   style="fill:#5edaf7;fill-opacity:1"
   inkscape:connector-curvature="0"
   id="path366"
   d="m 2073.8166,1087.3705 c -4.4,0 -8,3.6 -8,8 v 24 c 0,4.4 3.6,8 8,8 4.4,0 8,-3.6 8,-8 v -24 c 0,-4.4 -3.5,-8 -8,-8 z"
   class="st33" /><path
   style="fill:#5edaf7;fill-opacity:1"
   inkscape:connector-curvature="0"
   id="path368"
   d="m 2073.8166,1013.3705 c -4.4,0 -8,3.6 -8,8 v 24 c 0,4.4 3.6,8 8,8 4.4,0 8,-3.6 8,-8 v -24 c 0,-4.4 -3.5,-8 -8,-8 z"
   class="st33" /><path
   style="fill:#5edaf7;fill-opacity:1"
   inkscape:connector-curvature="0"
   id="path370"
   d="m 380.31656,1217.9705 h -24 c -4.4,0 -8,3.6 -8,8 0,4.4 3.6,8 8,8 h 24 c 4.4,0 8,-3.6 8,-8 0,-4.4 -3.5,-8 -8,-8 z"
   class="st33" /><path
   style="fill:#5edaf7;fill-opacity:1"
   inkscape:connector-curvature="0"
   id="path372"
   d="m 306.31656,1217.9705 h -2.9 v -5.1 c 0,-4.4 -3.6,-8 -8,-8 -4.4,0 -8,3.6 -8,8 v 13.1 c 0,4.4 3.6,8 8,8 h 10.9 c 4.4,0 8,-3.6 8,-8 0,-4.4 -3.5,-8 -8,-8 z"
   class="st33" /><path
   style="fill:#5edaf7;fill-opacity:1"
   inkscape:connector-curvature="0"
   id="path374"
   d="m 295.41656,1170.8705 c 4.4,0 8,-3.6 8,-8 v -16.1 c 0,-4.4 -3.6,-8 -8,-8 -4.4,0 -8,3.6 -8,8 v 16.1 c 0,4.5 3.6,8 8,8 z"
   class="st33" /><path
   style="fill:#5edaf7;fill-opacity:1"
   inkscape:connector-curvature="0"
   id="path376"
   d="m 676.31656,1217.9705 h -24 c -4.4,0 -8,3.6 -8,8 0,4.4 3.6,8 8,8 h 24 c 4.4,0 8,-3.6 8,-8 0,-4.4 -3.5,-8 -8,-8 z"
   class="st33" /><path
   style="fill:#5edaf7;fill-opacity:1"
   inkscape:connector-curvature="0"
   id="path378"
   d="m 602.31656,1217.9705 h -24 c -4.4,0 -8,3.6 -8,8 0,4.4 3.6,8 8,8 h 24 c 4.4,0 8,-3.6 8,-8 0,-4.4 -3.5,-8 -8,-8 z"
   class="st33" /><path
   style="fill:#5edaf7;fill-opacity:1"
   inkscape:connector-curvature="0"
   id="path380"
   d="m 528.31656,1217.9705 h -24 c -4.4,0 -8,3.6 -8,8 0,4.4 3.6,8 8,8 h 24 c 4.4,0 8,-3.6 8,-8 0,-4.4 -3.5,-8 -8,-8 z"
   class="st33" /><path
   style="fill:#5edaf7;fill-opacity:1"
   inkscape:connector-curvature="0"
   id="path382"
   d="m 454.31656,1217.9705 h -24 c -4.4,0 -8,3.6 -8,8 0,4.4 3.6,8 8,8 h 24 c 4.4,0 8,-3.6 8,-8 0,-4.4 -3.5,-8 -8,-8 z"
   class="st33" /><path
   style="fill:#5edaf7;fill-opacity:1"
   inkscape:connector-curvature="0"
   id="path384"
   d="m 485.91656,896.57047 c 4.4,0 8,-3.6 8,-8 v -24 c 0,-4.4 -3.6,-8 -8,-8 -4.4,0 -8,3.6 -8,8 v 24 c 0,4.4 3.6,8 8,8 z"
   class="st33" /><path
   style="fill:#5edaf7;fill-opacity:1"
   inkscape:connector-curvature="0"
   id="path386"
   d="m 485.91656,970.57047 c 4.4,0 8,-3.6 8,-8 v -24 c 0,-4.4 -3.6,-8 -8,-8 -4.4,0 -8,3.6 -8,8 v 24 c 0,4.4 3.6,8 8,8 z"
   class="st33" /><path
   style="fill:#5edaf7;fill-opacity:1"
   inkscape:connector-curvature="0"
   id="path388"
   d="m 485.91656,822.57047 c 4.4,0 8,-3.6 8,-8 v -24 c 0,-4.4 -3.6,-8 -8,-8 -4.4,0 -8,3.6 -8,8 v 24 c 0,4.4 3.6,8 8,8 z"
   class="st33" /><path
   style="fill:#5edaf7;fill-opacity:1"
   inkscape:connector-curvature="0"
   id="path390"
   d="m 504.71656,1083.7705 h -11.3 c -1.1,-3 -4.1,-5.2 -7.5,-5.2 -4.4,0 -8,3.6 -8,8 v 5.2 c 0,4.4 3.6,8 8,8 h 18.8 c 4.4,0 8,-3.6 8,-8 0,-4.4 -3.6,-8 -8,-8 z"
   class="st33" /><path
   style="fill:#5edaf7;fill-opacity:1"
   inkscape:connector-curvature="0"
   id="path392"
   d="m 726.71656,1083.7705 h -24 c -4.4,0 -8,3.6 -8,8 0,4.4 3.6,8 8,8 h 24 c 4.4,0 8,-3.6 8,-8 0,-4.4 -3.6,-8 -8,-8 z"
   class="st33" /><path
   style="fill:#5edaf7;fill-opacity:1"
   inkscape:connector-curvature="0"
   id="path394"
   d="m 652.71656,1083.7705 h -24 c -4.4,0 -8,3.6 -8,8 0,4.4 3.6,8 8,8 h 24 c 4.4,0 8,-3.6 8,-8 0,-4.4 -3.6,-8 -8,-8 z"
   class="st33" /><path
   style="fill:#5edaf7;fill-opacity:1"
   inkscape:connector-curvature="0"
   id="path396"
   d="m 485.91656,1044.5705 c 4.4,0 8,-3.6 8,-8 v -24 c 0,-4.4 -3.6,-8 -8,-8 -4.4,0 -8,3.6 -8,8 v 24 c 0,4.4 3.6,8 8,8 z"
   class="st33" /><path
   style="fill:#5edaf7;fill-opacity:1"
   inkscape:connector-curvature="0"
   id="path398"
   d="m 578.71656,1083.7705 h -24 c -4.4,0 -8,3.6 -8,8 0,4.4 3.6,8 8,8 h 24 c 4.4,0 8,-3.6 8,-8 0,-4.4 -3.6,-8 -8,-8 z"
   class="st33" />
</svg>
