<?xml version="1.0" encoding="UTF-8" standalone="no"?>
<!-- Generator: Adobe Illustrator 21.0.0, SVG Export Plug-In . SVG Version: 6.00 Build 0)  -->

<svg
   xmlns:dc="http://purl.org/dc/elements/1.1/"
   xmlns:cc="http://creativecommons.org/ns#"
   xmlns:rdf="http://www.w3.org/1999/02/22-rdf-syntax-ns#"
   xmlns:svg="http://www.w3.org/2000/svg"
   xmlns="http://www.w3.org/2000/svg"
   xmlns:sodipodi="http://sodipodi.sourceforge.net/DTD/sodipodi-0.dtd"
   xmlns:inkscape="http://www.inkscape.org/namespaces/inkscape"
   version="1.1"
   id="Layer_1"
   x="0px"
   y="0px"
   width="962.80865"
   height="959.90002"
   viewBox="0 0 962.80865 959.90002"
   xml:space="preserve"
   sodipodi:docname="software engineer_obg.svg"
   inkscape:version="0.92.3 (2405546, 2018-03-11)"><metadata
   id="metadata407"><rdf:RDF><cc:Work
       rdf:about=""><dc:format>image/svg+xml</dc:format><dc:type
         rdf:resource="http://purl.org/dc/dcmitype/StillImage" /><dc:title /></cc:Work></rdf:RDF></metadata><defs
   id="defs405">
	
	
	
	
	
	
	
	
	
	
	
	
	
	
	
	
	
	
	
	
	
	
	
	
	
	
	
	

		
		
		
		
		
	
			
			
			
			
			
			
			
			
			
			
			
		
			
			
			
			
			
			
			
		
			
			
			
			
			
			
			
			
			
			
			
		
			
			
			
			
		
			
			
			
			
			
		
		
		
	
				
				
				
				
				
				
				
				
				
				
				
				
				
				
				
				
				
				
				
				
			
					
					
					
				
			
			
			
			
			
			
		</defs><sodipodi:namedview
   pagecolor="#ffffff"
   bordercolor="#666666"
   borderopacity="1"
   objecttolerance="10"
   gridtolerance="10"
   guidetolerance="10"
   inkscape:pageopacity="0"
   inkscape:pageshadow="2"
   inkscape:window-width="1366"
   inkscape:window-height="743"
   id="namedview403"
   showgrid="false"
   inkscape:zoom="1.3350176"
   inkscape:cx="534.94874"
   inkscape:cy="266.74661"
   inkscape:window-x="0"
   inkscape:window-y="0"
   inkscape:window-maximized="1"
   inkscape:current-layer="Layer_1"
   fit-margin-top="0"
   fit-margin-left="0"
   fit-margin-right="0"
   fit-margin-bottom="0" />
<style
   type="text/css"
   id="style2">
	.st0{fill:#9EE2D5;}
	.st1{fill:#B3E8DE;}
	.st2{fill:#80BCB0;}
	.st3{fill:#FFFFE7;}
	.st4{fill:#EDECD6;}
	.st5{fill:#D59E4C;}
	.st6{fill:#CABFA3;}
	.st7{fill:#968E7C;}
	.st8{fill:#FFCE7F;}
	.st9{fill:#DB7A49;}
	.st10{fill:#A04935;}
	.st11{fill:#AF5B41;}
	.st12{fill:#FD965B;}
	.st13{fill:#2B6668;}
	.st14{fill:#335352;}
	.st15{fill:#8D978F;}
	.st16{fill:#7E8780;}
	.st17{fill:#914C3A;}
	.st18{fill:#89968C;}
	.st19{fill:#97A098;}
	.st20{fill:#717F74;}
	.st21{fill:#B6BAB6;}
	.st22{fill:#9BA59D;}
	.st23{fill:#A3AFA5;}
	.st24{fill:#8F9991;}
	.st25{fill:#A07457;}
	.st26{fill:#B78B68;}
	.st27{fill:#7D966C;}
	.st28{fill:#667C55;}
	.st29{fill:#CEF4EC;}
	.st30{fill:#609389;}
	.st31{fill:#AAAFAB;}
	.st32{fill:#3F8989;}
	.st33{fill:#DCF9F2;}
</style>

<g
   id="g2873"
   inkscape:export-xdpi="195"
   inkscape:export-ydpi="195"><rect
     style="fill:#db7a49"
     id="rect84"
     height="125.1"
     width="91.900002"
     class="st9"
     y="426.49997"
     x="431.84503" /><path
     style="fill:#a04935"
     inkscape:connector-curvature="0"
     id="path86"
     d="m 654.04499,322.5 c 0,0 -9.9,-19.3 -13.9,7.5 -4,26.8 30.4,43.2 30.4,43.2 -23.4,-26.3 -16.5,-50.7 -16.5,-50.7 z"
     class="st10" /><path
     style="fill:#502d16"
     inkscape:connector-curvature="0"
     id="path88"
     d="m 625.34499,360.3 v 0 c -14,19.9 -29.3,37.8 -45.1,53.3 v 0 c 0,0 31.9,19.4 -10.6,159.4 -42.5,140 97.9,235.6 97.9,235.6 -43,-119.2 -22.2,-123.3 40.2,-248.1 62.4,-124.8 -82.4,-200.2 -82.4,-200.2 z"
     class="st11" /><path
     style="fill:#502d16"
     inkscape:connector-curvature="0"
     id="path90"
     d="m 625.34499,360.3 v 0 c -14,19.9 -29.3,37.8 -45.1,53.3 v 0 c 0,0 31.9,19.4 -10.6,159.4 -6.2,20.6 -8.5,40.2 -7.9,58.7 v 0 c 16.2,-99.7 41.1,-109.1 88.2,-159.1 26,-27.6 19,-63.8 7.4,-90.6 -17.6,-14.2 -32,-21.7 -32,-21.7 z"
     class="st10" /><path
     style="fill:#fd965b"
     inkscape:connector-curvature="0"
     id="path92"
     d="m 480.34499,52.9 c -97.4,0 -186.7,63.5 -186.7,177.7 0,60.2 29.1,119.7 68.6,163.9 61.5,68.8 174.7,68.8 236.2,0 39.5,-44.2 68.6,-103.8 68.6,-163.9 0.1,-114.2 -89.3,-177.7 -186.7,-177.7 z"
     class="st12" /><circle
     style="fill:#fd965b"
     id="circle94"
     r="46.599998"
     cy="275.89999"
     cx="660.14496"
     class="st12" /><circle
     style="fill:#fd965b"
     id="circle96"
     r="46.599998"
     cy="275.89999"
     cx="300.64496"
     class="st12" /><path
     style="fill:#502d16"
     inkscape:connector-curvature="0"
     id="path98"
     d="m 621.34499,64 c -0.1,-0.1 -0.2,-0.2 -0.3,-0.3 -31.3,-33.2 -71.5,-54.5 -115.1,-61.3 -0.3,-0.1 -0.7,-0.1 -1,-0.1 -3,-0.5 -6.1,-0.9 -9.2,-1.2 -1.2,-0.1 -2.4,-0.2 -3.7,-0.3 -2.2,-0.2 -4.4,-0.4 -6.6,-0.5 -3.4,-0.2 -6.9,-0.3 -10.4,-0.3 -2.9,0 -5.8,0.1 -8.6,0.2 -1,0 -2.1,0.1 -3.1,0.1 -2.2,0.1 -4.3,0.3 -6.5,0.5 -1.8,0.2 -3.7,0.4 -5.5,0.6 0,0 -0.1,0 -0.1,0 0,0 0,0 0,0 -101.1,12.2 -185.4,101.6 -187.9,237 -9.5,94.7 47.1,207.7 47.1,207.7 -33.7,-82.4 -3.8,-189.9 -3.8,-189.9 8.8,-16.9 24.2,-29.5 42.6,-34.7 30.1,-8.6 61.7,-20.1 93.6,-34.6 33.4,-15.2 64.2,-32.2 91.5,-50.1 50.9,58.1 108.2,95.5 152.4,101.9 -1.1,-73.4 -26.4,-133.2 -65.4,-174.7 0,0 0,0 0,0 z"
     class="st11" /><path
     style="fill:#502d16"
     inkscape:connector-curvature="0"
     id="path100"
     d="m 713.84499,486.2 -17.4,-0.1 c 0,0 -7.5,20.6 15.1,60.4 22.6,39.8 53.2,28.3 53.2,28.3 -38,-9.1 -50.9,-88.6 -50.9,-88.6 z"
     class="st11" /><path
     class="st13"
     d="m 659.94499,216.1 c -10.9,-2.4 -45.7,-9.1 -83.9,-4.3 -46.2,5.8 -77.6,13.7 -95.7,11.9 -18.1,1.8 -49.5,-6.1 -95.7,-11.9 -38.2,-4.8 -73,1.9 -83.9,4.3 -2.1,0.5 -3.5,2.3 -3.5,4.4 v 15 c 0,1.8 1,3.4 2.7,4.1 13.6,5.9 14.8,38.7 18.4,62.4 3.8,25.2 35.1,30 67.6,30.1 21.2,0.1 37.5,-3.2 49.3,-8.7 24.1,-11.1 28.2,-69.2 30.5,-74.4 2.3,-5.2 14.6,-4.1 14.6,-4.1 0,0 12.3,-1.2 14.6,4.1 2.3,5.3 6.4,63.3 30.5,74.4 11.8,5.4 28.2,8.8 49.3,8.7 32.5,-0.2 63.8,-5 67.6,-30.1 3.6,-23.7 4.8,-56.5 18.4,-62.4 1.6,-0.7 2.7,-2.4 2.7,-4.1 v -15 c 0.1,-2.1 -1.4,-3.9 -3.5,-4.4 z"
     id="path102"
     inkscape:connector-curvature="0"
     style="fill:#2b6668" /><path
     class="st12"
     d="m 425.04499,227.1 c -26.8,-4.5 -50.6,-6.3 -57.1,-6.7 -0.8,-0.1 -1.6,-0.1 -2.4,-0.2 -5.6,-0.4 -41.3,-1.7 -40.5,37.7 0.9,42.7 4.1,59.1 32.2,63.2 28.1,4.1 48.3,3.2 62.9,-3.8 14.6,-7 22.2,-12.9 29.5,-43.3 7.3,-30.4 4.2,-42 -24.6,-46.9 z"
     id="path104"
     inkscape:connector-curvature="0"
     style="fill:#fd965b" /><path
     class="st12"
     d="m 595.24499,220.3 c -0.8,0.1 -1.6,0.1 -2.4,0.2 -6.5,0.4 -30.3,2.1 -57.1,6.7 -28.7,4.9 -31.9,16.5 -24.6,46.9 7.3,30.4 14.9,36.3 29.5,43.3 14.6,7 34.8,7.9 62.9,3.8 28.1,-4.1 31.3,-20.5 32.2,-63.2 0.8,-39.5 -34.9,-38.2 -40.5,-37.7 z"
     id="path106"
     inkscape:connector-curvature="0"
     style="fill:#fd965b" /><path
     style="fill:#335352"
     inkscape:connector-curvature="0"
     id="path110"
     d="m 519.54499,488 c -18.4,37.4 -72.9,34.3 -86.6,-5.1 -0.4,-1.3 -0.7,-2.1 -0.7,-2.4 l -169.8,52 v 427.4 h 215.3 220.5 V 534.1 l -175,-53.6 z"
     class="st14" /><path
     style="fill:#fd965b"
     inkscape:connector-curvature="0"
     id="path112"
     d="m 303.64499,811.7 h -186.6 c -1.3,0 -3.8,0 -5.3,-3.4 -0.9,-2.1 -0.7,-3.6 -0.2,-4.6 l 199.6,-174.1 c 23.3,-20.3 25.7,-55.7 5.4,-79 -20.3,-23.3 -55.7,-25.7 -79,-5.4 l -203.6,177.5 c -1.8,1.6 -3.5,3.3 -5.1,5 -31.2,35.2 -38.6,83.6 -19.3,126.5 19.3,42.9 60.5,69.5 107.5,69.5 h 186.6 c 30.9,0 56,-25.1 56,-56 0,-31 -25,-56 -56,-56 z"
     class="st12" /><path
     style="fill:#335352"
     inkscape:connector-curvature="0"
     id="path114"
     d="m 237.54499,545.1 -149.7,130.6 c 12.2,28.8 35.8,62.3 81.5,77.5 l 141.8,-123.6 c 23.3,-20.3 25.7,-55.7 5.4,-79 -20.3,-23.4 -55.7,-25.8 -79,-5.5 z"
     class="st14" /><path
     style="fill:#fd965b"
     inkscape:connector-curvature="0"
     id="path116"
     d="m 926.74499,722.6 -203.6,-177.5 c -23.3,-20.3 -58.7,-17.9 -79,5.4 -20.3,23.3 -17.9,58.7 5.4,79 l 199.6,174.1 c 0.5,1.1 0.7,2.6 -0.2,4.6 -1.5,3.4 -4,3.4 -5.3,3.4 h -186.6 c -30.9,0 -56,25.1 -56,56 0,30.9 25.1,56 56,56 h 186.6 c 47,0 88.2,-26.6 107.5,-69.5 19.3,-42.9 11.9,-91.3 -19.3,-126.5 -1.6,-1.7 -3.3,-3.4 -5.1,-5 z"
     class="st12" /><path
     style="fill:#335352"
     inkscape:connector-curvature="0"
     id="path118"
     d="m 644.24499,550.5 c -20.3,23.3 -17.9,58.7 5.4,79 l 141.8,123.6 c 45.7,-15.2 69.4,-48.7 81.5,-77.5 l -149.7,-130.6 c -23.3,-20.2 -58.7,-17.8 -79,5.5 z"
     class="st14" /><path
     style="fill:#914c3a"
     inkscape:connector-curvature="0"
     id="path130"
     d="m 389.04499,285.4 c -11.5,0 -21.2,-7.7 -24.2,-18.3 -0.6,2.2 -1,4.5 -1,6.9 0,13.9 11.3,25.2 25.2,25.2 13.9,0 25.2,-11.3 25.2,-25.2 0,-2.4 -0.3,-4.7 -1,-6.9 -3,10.5 -12.7,18.3 -24.2,18.3 z"
     class="st17" /><path
     style="fill:#914c3a"
     inkscape:connector-curvature="0"
     id="path132"
     d="m 571.74499,285.4 c -11.5,0 -21.2,-7.7 -24.2,-18.3 -0.6,2.2 -1,4.5 -1,6.9 0,13.9 11.3,25.2 25.2,25.2 13.9,0 25.2,-11.3 25.2,-25.2 0,-2.4 -0.3,-4.7 -1,-6.9 -2.9,10.5 -12.7,18.3 -24.2,18.3 z"
     class="st17" /><ellipse
     style="fill:#914c3a"
     id="ellipse134"
     ry="22.6"
     rx="15.1"
     cy="385.99997"
     cx="480.34503"
     class="st17" /><path
     style="fill:#ffffe7"
     inkscape:connector-curvature="0"
     id="path136"
     d="m 480.34499,363.4 c -6.6,0 -12.2,6.4 -14.2,15.2 h 28.5 c -2.1,-8.9 -7.7,-15.2 -14.3,-15.2 z"
     class="st3" /><ellipse
     ry="25.835733"
     rx="36.737804"
     cy="275.0466"
     cx="387.93097"
     id="path2327"
     style="opacity:1;fill:#ffffff;fill-opacity:1;stroke:#ffffff;stroke-width:1.23872781;stroke-opacity:1" /><ellipse
     ry="18.591751"
     rx="20.710394"
     cy="282.46356"
     cx="388.24152"
     id="path2346"
     style="opacity:1;fill:#000000;fill-opacity:1;stroke:#ffffff;stroke-width:0.89277029;stroke-opacity:1" /><ellipse
     ry="25.835733"
     rx="36.737804"
     cy="274.51865"
     cx="567.79663"
     id="path2327-6"
     style="opacity:1;fill:#ffffff;fill-opacity:1;stroke:#ffffff;stroke-width:1.23872781;stroke-opacity:1" /><ellipse
     ry="18.591751"
     rx="20.710394"
     cy="281.93561"
     cx="568.10718"
     id="path2346-7"
     style="opacity:1;fill:#000000;fill-opacity:1;stroke:#ffffff;stroke-width:0.89277029;stroke-opacity:1" /><text
     id="text2254"
     y="670.81525"
     x="363.34744"
     style="font-style:normal;font-weight:normal;font-size:17.33333397px;line-height:1.25;font-family:sans-serif;letter-spacing:0px;word-spacing:0px;fill:#ffffff;fill-opacity:1;stroke:none"
     xml:space="preserve"><tspan
       style="font-size:21.33333397px;fill:#ffffff;fill-opacity:1"
       y="670.81525"
       x="363.34744"
       id="tspan2252"
       sodipodi:role="line">Coder</tspan></text>
<rect
     y="678.21637"
     x="365.4519"
     height="2.0283637"
     width="239.62158"
     id="rect2809"
     style="opacity:1;fill:#ffffff;fill-opacity:1;stroke:#ffffff;stroke-width:0.9716363;stroke-opacity:1" /><text
     id="text2813"
     y="713.18817"
     x="364.40677"
     style="font-style:normal;font-weight:normal;font-size:17.33333397px;line-height:1.25;font-family:sans-serif;letter-spacing:0px;word-spacing:0px;fill:#ffffff;fill-opacity:1;stroke:none"
     xml:space="preserve"><tspan
       style="font-size:16px"
       y="713.18817"
       x="364.40677"
       id="tspan2811"
       sodipodi:role="line">A person with magical powers</tspan></text>
<text
     id="text2817"
     y="734.37463"
     x="365.46609"
     style="font-style:normal;font-weight:normal;font-size:17.33333397px;line-height:1.25;font-family:sans-serif;letter-spacing:0px;word-spacing:0px;fill:#000000;fill-opacity:1;stroke:none"
     xml:space="preserve"
     inkscape:export-xdpi="195"
     inkscape:export-ydpi="195"><tspan
       style="font-style:italic;font-variant:normal;font-weight:normal;font-stretch:normal;font-size:12px;font-family:sans-serif;-inkscape-font-specification:'sans-serif Italic';fill:#ffffff"
       y="734.37463"
       x="365.46609"
       id="tspan2815"
       sodipodi:role="line">Synonyms: wizzard,sorceress, magician</tspan></text>
<text
     id="text2829"
     y="669.64581"
     x="434.32202"
     style="font-style:normal;font-weight:normal;font-size:17.33333397px;line-height:1.25;font-family:sans-serif;letter-spacing:0px;word-spacing:0px;fill:#000000;fill-opacity:1;stroke:none"
     xml:space="preserve"><tspan
       style="fill:#ffffff;font-size:21.33333333px"
       y="669.64581"
       x="434.32202"
       id="tspan2827"
       sodipodi:role="line">[kəʊdə]</tspan></text>
</g></svg>